<?xml version="1.0" encoding="utf-8"?><svg width="352" height="238" viewBox="0 0 352 238" xmlns="http://www.w3.org/2000/svg" xmlns:xlink="http://www.w3.org/1999/xlink"><svg width="151" height="141.797" viewBox="0 0 151 141.797" id="kitchen" y="96.047" xmlns="http://www.w3.org/2000/svg"><g data-name="Group 1377"><g data-name="Group 1376" fill="#ffcc2a"><path data-name="Path 980" d="M21.194 80.326a2.214 2.214 0 003.091 3.171c4.425-4.313 2.613-7.863 1.412-10.213-1.127-2.2-1.593-3.117.782-5.352a2.214 2.214 0 00-3.035-3.224c-4.8 4.514-2.927 8.171-1.69 10.591 1.081 2.116 1.529 2.991-.56 5.026zm0 0"/><path data-name="Path 981" d="M33.45 68.455a2.214 2.214 0 003.091 3.171c4.428-4.316 2.61-7.866 1.408-10.214-1.128-2.2-1.6-3.117.778-5.351a2.214 2.214 0 10-3.035-3.224c-4.8 4.515-2.924 8.172-1.685 10.593 1.083 2.115 1.531 2.991-.557 5.025zm0 0"/><path data-name="Intersection 1" d="M44.147 141.797a2.214 2.214 0 010-4.428h23.06a2.119 2.119 0 002.115-2.119v-4.516a1.908 1.908 0 00-.012-.216 2.273 2.273 0 01-.033-.217 2.118 2.118 0 00-2.07-1.685H21.095a2.118 2.118 0 00-2.114 2.118v4.522a2.118 2.118 0 002.114 2.119H34.06a2.214 2.214 0 010 4.428H21.095a6.551 6.551 0 01-6.541-6.547v-4.522a6.551 6.551 0 016.541-6.546h2.153a31.672 31.672 0 01-10.011-12.838H7.484a7.493 7.493 0 01-.724-14.949h72.469a7.439 7.439 0 013.749 1.007 7.545 7.545 0 013.094 3.538h.035a7.516 7.516 0 01.446 4.426h-.044a7.5 7.5 0 01-7.34 5.977h-5.778a32.765 32.765 0 01-10 12.835h3.82a6.55 6.55 0 015.871 3.662l.089-.048a5.977 5.977 0 01.592 2.6v1.876h-.013v2.977a6.552 6.552 0 01-6.543 6.547zm-28.432-40.813c-.321.4-.5 1.606-.122 3.3a27.55 27.55 0 0016.544 19.9h22.6a28.261 28.261 0 0016.323-19.9c.374-1.7.2-2.9-.12-3.3-.046-.058-.155-.192-.642-.192H16.354c-.484.001-.594.135-.639.192zm59.667 4.256a33.565 33.565 0 01-.422 1.681h4.207a3.065 3.065 0 000-6.13h-3.629a10.947 10.947 0 01-.156 4.449zm-70.954-1.379a3.061 3.061 0 003.056 3.06h4.206a36.394 36.394 0 01-.42-1.678 10.928 10.928 0 01-.154-4.449H7.484a3.066 3.066 0 00-3.056 3.067z"/></g><path data-name="Path 984" d="M80.069 28.754a2.214 2.214 0 002.213-2.214V16.371a2.214 2.214 0 00-4.428 0V26.54a2.214 2.214 0 002.215 2.214zm0 0"/><path data-name="Path 985" d="M65.036 18.754a2.214 2.214 0 00-2.213 2.214v10.16a2.214 2.214 0 004.428 0v-10.16a2.214 2.214 0 00-2.215-2.214zm0 0"/><path data-name="Path 986" d="M95.1 33.342a2.214 2.214 0 002.213-2.214V20.967a2.214 2.214 0 00-4.428 0v10.16a2.214 2.214 0 002.215 2.215zm0 0"/><path data-name="Subtraction 1" d="M137.71 139.351h-4.05a7.432 7.432 0 01-7.408-7.078H76.28v-2.835a6.014 6.014 0 00-.214-1.593h39.394l-3.5-20.218c-.038-.231-.415-2.256-1.9-2.256H89.541a9.322 9.322 0 00-.243-4.426h8.453V89.426a23.688 23.688 0 01-8.346 3.771 37.629 37.629 0 01-9.16 1.114c-.468 0-.95-.009-1.433-.028-6.255-.24-11.984-1.94-15.718-4.665V94.4h-4.426v-7.847a14.032 14.032 0 01-1.827.185c-1.309.062-2.6.171-3.847.323V94.4h-4.427v-6.535c-4.942 1.235-8.466 3.37-10.772 6.535H32.62a18.749 18.749 0 016.722-7.418 29.5 29.5 0 0110.984-4h.024a51.537 51.537 0 016.3-.668h.032a7.589 7.589 0 003.144-.706h.005a7.306 7.306 0 002.84-2.651c-1.03-.8-2-1.629-2.888-2.469-3.823-3.617-8.367-9.488-8.367-16.955V28.952a12.2 12.2 0 01-4.256-5.322 9.933 9.933 0 01-.252-6.366c1.571-5.495 7.178-9.332 13.637-9.332h5.965A17.3 17.3 0 0181.108 0c.552 0 1.11.027 1.659.079 5.372.514 9.566 3.376 11.507 7.853h6.245c6.365 0 11.892 3.781 13.441 9.2a10.013 10.013 0 01-.262 6.439 12.387 12.387 0 01-4.325 5.388v14.527a2.152 2.152 0 010 .644v14.255c0 7.126-3.525 14.06-9.924 19.523-.406.347-.848.7-1.391 1.12a7.32 7.32 0 002.768 2.562l.062.03.041.02a7.623 7.623 0 003.066.671.171.171 0 01.031 0c14.591.691 23.233 6.318 25.689 16.724l2.112 8.95a7.409 7.409 0 011.837-.23h1.833v-31h-2.486a8.6 8.6 0 01-8.59-8.6V48.876a8.6 8.6 0 018.59-8.595h9.4a8.6 8.6 0 018.59 8.595v19.279a8.6 8.6 0 01-8.59 8.6h-2.487v31.222a11.492 11.492 0 019.251 11.255v8.648a11.482 11.482 0 01-11.465 11.471zm-4.05-27.167a2.986 2.986 0 00-1.871.664l-.059.049a2.992 2.992 0 00-1.058 2.282v16.74a3 3 0 002.99 3h4.047a7.049 7.049 0 007.036-7.045v-8.648a7.049 7.049 0 00-7.036-7.045zM112.28 87.91v13.46a6.988 6.988 0 014.05 5.515l3.62 20.96h6.3v-12.666a7.342 7.342 0 011.632-4.639l-2.474-10.486c-1.483-6.291-5.776-10.263-13.124-12.145zm-10.1-1.327v14.362h5.674V87.084a50.92 50.92 0 00-4.021-.348 13.767 13.767 0 01-1.652-.153zM66.314 81.47a12.693 12.693 0 01-2.488 2.776c2.552 3.2 8.359 5.352 15.156 5.612.43.016.869.025 1.3.025 5.665 0 12.994-1.478 16.575-5.626a12.611 12.611 0 01-2.471-2.741 31.64 31.64 0 01-13.96 4.565c-.215.012-.433.018-.645.018-3.769 0-8.68-1.687-13.471-4.63zm9.312-42.933a2.214 2.214 0 01.1 4.426c-3.274.134-6.63.425-9.973.865a12.318 12.318 0 01-4.907 9.792 16.861 16.861 0 01-5 2.594v3.32c0 5.892 3.8 10.72 6.98 13.733a34.635 34.635 0 003.9 3.182 2.39 2.39 0 01.227.157c4.451 3.077 9.487 5.066 12.831 5.068.129 0 .26 0 .4-.012 5.31-.3 11.59-3.024 16.388-7.12 5.4-4.609 8.371-10.346 8.371-16.156v-2.14a17.015 17.015 0 01-4.72-2.336 12.314 12.314 0 01-5.278-10.076c-3.037-.4-6.042-.674-8.932-.823a2.214 2.214 0 01.111-4.426h.117c3.649.189 7.4.563 11.158 1.112h.089a2.22 2.22 0 01.282.051c2.435.364 4.848.8 7.172 1.285V27.779a2.2 2.2 0 011.044-1.879c3.167-1.973 4.52-4.726 3.712-7.554-.825-2.883-4.05-5.987-9.183-5.987h-7.8a2.225 2.225 0 01-2.127-1.6c-1.028-3.534-4.112-5.881-8.25-6.277-.384-.037-.78-.055-1.177-.055a12.7 12.7 0 00-11.401 6.729 2.2 2.2 0 01-1.971 1.2h-7.25c-5.01 0-8.51 3.079-9.379 6.12-.808 2.822.483 5.457 3.635 7.421a2.2 2.2 0 011.043 1.879v13.267c2.362-.5 4.762-.939 7.133-1.3.078-.017.154-.029.232-.038a.357.357 0 01.041 0h.016a116.138 116.138 0 0112.28-1.166zm57.385 6.172a4.17 4.17 0 00-4.162 4.168v19.278a4.17 4.17 0 004.162 4.169h9.4a4.17 4.17 0 004.162-4.169V48.876a4.169 4.169 0 00-4.162-4.168zm-33.578-.2a8.541 8.541 0 005.512 7.039V45.58c-1.835-.4-3.69-.763-5.512-1.072zm-38.172 0c-1.818.313-3.641.672-5.417 1.066v5.918a8.551 8.551 0 005.416-6.983z"/></g></svg><svg width="151" height="141.797" viewBox="0 0 151 141.797" id="kitchen-black" x="151" y="96.047" xmlns="http://www.w3.org/2000/svg"><g data-name="Group 1377" fill="#484848"><g data-name="Group 1376"><path data-name="Path 980" d="M21.194 80.326a2.214 2.214 0 003.091 3.171c4.425-4.313 2.613-7.863 1.412-10.213-1.127-2.2-1.593-3.117.782-5.352a2.214 2.214 0 00-3.035-3.224c-4.8 4.514-2.927 8.171-1.69 10.591 1.081 2.116 1.529 2.991-.56 5.026zm0 0"/><path data-name="Path 981" d="M33.45 68.455a2.214 2.214 0 003.091 3.171c4.428-4.316 2.61-7.866 1.408-10.214-1.128-2.2-1.6-3.117.778-5.351a2.214 2.214 0 10-3.035-3.224c-4.8 4.515-2.924 8.172-1.685 10.593 1.083 2.115 1.531 2.991-.557 5.025zm0 0"/><path data-name="Intersection 1" d="M44.147 141.797a2.214 2.214 0 010-4.428h23.06a2.119 2.119 0 002.115-2.119v-4.516a1.908 1.908 0 00-.012-.216 2.273 2.273 0 01-.033-.217 2.118 2.118 0 00-2.07-1.685H21.095a2.118 2.118 0 00-2.114 2.118v4.522a2.118 2.118 0 002.114 2.119H34.06a2.214 2.214 0 010 4.428H21.095a6.551 6.551 0 01-6.541-6.547v-4.522a6.551 6.551 0 016.541-6.546h2.153a31.672 31.672 0 01-10.011-12.838H7.484a7.493 7.493 0 01-.724-14.949h72.469a7.439 7.439 0 013.749 1.007 7.545 7.545 0 013.094 3.538h.035a7.516 7.516 0 01.446 4.426h-.044a7.5 7.5 0 01-7.34 5.977h-5.778a32.765 32.765 0 01-10 12.835h3.82a6.55 6.55 0 015.871 3.662l.089-.048a5.977 5.977 0 01.592 2.6v1.876h-.013v2.977a6.552 6.552 0 01-6.543 6.547zm-28.432-40.813c-.321.4-.5 1.606-.122 3.3a27.55 27.55 0 0016.544 19.9h22.6a28.261 28.261 0 0016.323-19.9c.374-1.7.2-2.9-.12-3.3-.046-.058-.155-.192-.642-.192H16.354c-.484.001-.594.135-.639.192zm59.667 4.256a33.565 33.565 0 01-.422 1.681h4.207a3.065 3.065 0 000-6.13h-3.629a10.947 10.947 0 01-.156 4.449zm-70.954-1.379a3.061 3.061 0 003.056 3.06h4.206a36.394 36.394 0 01-.42-1.678 10.928 10.928 0 01-.154-4.449H7.484a3.066 3.066 0 00-3.056 3.067z"/></g><path data-name="Path 984" d="M80.069 28.754a2.214 2.214 0 002.213-2.214V16.371a2.214 2.214 0 00-4.428 0V26.54a2.214 2.214 0 002.215 2.214zm0 0"/><path data-name="Path 985" d="M65.036 18.754a2.214 2.214 0 00-2.213 2.214v10.16a2.214 2.214 0 004.428 0v-10.16a2.214 2.214 0 00-2.215-2.214zm0 0"/><path data-name="Path 986" d="M95.1 33.342a2.214 2.214 0 002.213-2.214V20.967a2.214 2.214 0 00-4.428 0v10.16a2.214 2.214 0 002.215 2.215zm0 0"/><path data-name="Subtraction 1" d="M137.71 139.351h-4.05a7.432 7.432 0 01-7.408-7.078H76.28v-2.835a6.014 6.014 0 00-.214-1.593h39.394l-3.5-20.218c-.038-.231-.415-2.256-1.9-2.256H89.541a9.322 9.322 0 00-.243-4.426h8.453V89.426a23.688 23.688 0 01-8.346 3.771 37.629 37.629 0 01-9.16 1.114c-.468 0-.95-.009-1.433-.028-6.255-.24-11.984-1.94-15.718-4.665V94.4h-4.426v-7.847a14.032 14.032 0 01-1.827.185c-1.309.062-2.6.171-3.847.323V94.4h-4.427v-6.535c-4.942 1.235-8.466 3.37-10.772 6.535H32.62a18.749 18.749 0 016.722-7.418 29.5 29.5 0 0110.984-4h.024a51.537 51.537 0 016.3-.668h.032a7.589 7.589 0 003.144-.706h.005a7.306 7.306 0 002.84-2.651c-1.03-.8-2-1.629-2.888-2.469-3.823-3.617-8.367-9.488-8.367-16.955V28.952a12.2 12.2 0 01-4.256-5.322 9.933 9.933 0 01-.252-6.366c1.571-5.495 7.178-9.332 13.637-9.332h5.965A17.3 17.3 0 0181.108 0c.552 0 1.11.027 1.659.079 5.372.514 9.566 3.376 11.507 7.853h6.245c6.365 0 11.892 3.781 13.441 9.2a10.013 10.013 0 01-.262 6.439 12.387 12.387 0 01-4.325 5.388v14.527a2.152 2.152 0 010 .644v14.255c0 7.126-3.525 14.06-9.924 19.523-.406.347-.848.7-1.391 1.12a7.32 7.32 0 002.768 2.562l.062.03.041.02a7.623 7.623 0 003.066.671.171.171 0 01.031 0c14.591.691 23.233 6.318 25.689 16.724l2.112 8.95a7.409 7.409 0 011.837-.23h1.833v-31h-2.486a8.6 8.6 0 01-8.59-8.6V48.876a8.6 8.6 0 018.59-8.595h9.4a8.6 8.6 0 018.59 8.595v19.279a8.6 8.6 0 01-8.59 8.6h-2.487v31.222a11.492 11.492 0 019.251 11.255v8.648a11.482 11.482 0 01-11.465 11.471zm-4.05-27.167a2.986 2.986 0 00-1.871.664l-.059.049a2.992 2.992 0 00-1.058 2.282v16.74a3 3 0 002.99 3h4.047a7.049 7.049 0 007.036-7.045v-8.648a7.049 7.049 0 00-7.036-7.045zM112.28 87.91v13.46a6.988 6.988 0 014.05 5.515l3.62 20.96h6.3v-12.666a7.342 7.342 0 011.632-4.639l-2.474-10.486c-1.483-6.291-5.776-10.263-13.124-12.145zm-10.1-1.327v14.362h5.674V87.084a50.92 50.92 0 00-4.021-.348 13.767 13.767 0 01-1.652-.153zM66.314 81.47a12.693 12.693 0 01-2.488 2.776c2.552 3.2 8.359 5.352 15.156 5.612.43.016.869.025 1.3.025 5.665 0 12.994-1.478 16.575-5.626a12.611 12.611 0 01-2.471-2.741 31.64 31.64 0 01-13.96 4.565c-.215.012-.433.018-.645.018-3.769 0-8.68-1.687-13.471-4.63zm9.312-42.933a2.214 2.214 0 01.1 4.426c-3.274.134-6.63.425-9.973.865a12.318 12.318 0 01-4.907 9.792 16.861 16.861 0 01-5 2.594v3.32c0 5.892 3.8 10.72 6.98 13.733a34.635 34.635 0 003.9 3.182 2.39 2.39 0 01.227.157c4.451 3.077 9.487 5.066 12.831 5.068.129 0 .26 0 .4-.012 5.31-.3 11.59-3.024 16.388-7.12 5.4-4.609 8.371-10.346 8.371-16.156v-2.14a17.015 17.015 0 01-4.72-2.336 12.314 12.314 0 01-5.278-10.076c-3.037-.4-6.042-.674-8.932-.823a2.214 2.214 0 01.111-4.426h.117c3.649.189 7.4.563 11.158 1.112h.089a2.22 2.22 0 01.282.051c2.435.364 4.848.8 7.172 1.285V27.779a2.2 2.2 0 011.044-1.879c3.167-1.973 4.52-4.726 3.712-7.554-.825-2.883-4.05-5.987-9.183-5.987h-7.8a2.225 2.225 0 01-2.127-1.6c-1.028-3.534-4.112-5.881-8.25-6.277-.384-.037-.78-.055-1.177-.055a12.7 12.7 0 00-11.401 6.729 2.2 2.2 0 01-1.971 1.2h-7.25c-5.01 0-8.51 3.079-9.379 6.12-.808 2.822.483 5.457 3.635 7.421a2.2 2.2 0 011.043 1.879v13.267c2.362-.5 4.762-.939 7.133-1.3.078-.017.154-.029.232-.038a.357.357 0 01.041 0h.016a116.138 116.138 0 0112.28-1.166zm57.385 6.172a4.17 4.17 0 00-4.162 4.168v19.278a4.17 4.17 0 004.162 4.169h9.4a4.17 4.17 0 004.162-4.169V48.876a4.169 4.169 0 00-4.162-4.168zm-33.578-.2a8.541 8.541 0 005.512 7.039V45.58c-1.835-.4-3.69-.763-5.512-1.072zm-38.172 0c-1.818.313-3.641.672-5.417 1.066v5.918a8.551 8.551 0 005.416-6.983z"/></g></svg><svg data-name="Group 1375" width="175.779" height="96.047" viewBox="0 0 175.779 96.047" id="table-chair" xmlns="http://www.w3.org/2000/svg"><g data-name="Group 1374"><path data-name="Path 988" d="M173.7 2.567A7.929 7.929 0 00167.867 0h-2.347a11.722 11.722 0 00-11.741 10.755l-2.54 28.934a4.9 4.9 0 01-4.91 4.5h-21.981a12.788 12.788 0 00-12.774 12.774v1.269a7.726 7.726 0 007.717 7.717h4.711l-4.64 15.152-.01.034-3.546 11.582a2.575 2.575 0 104.924 1.508l2.991-9.768h35.317l2.991 9.768a2.575 2.575 0 104.924-1.508l-8.417-27.488a18.878 18.878 0 004.244-1.781 2.575 2.575 0 10-2.562-4.467 13.783 13.783 0 01-6.846 1.819h-34.08a2.57 2.57 0 01-2.567-2.567v-1.269a7.633 7.633 0 017.624-7.624h21.981a10.024 10.024 0 0010.041-9.2l2.539-28.935a6.6 6.6 0 016.611-6.056h2.347a2.762 2.762 0 012.751 3l-3.516 40.069a13.85 13.85 0 01-.572 2.906 2.575 2.575 0 004.917 1.532 19.057 19.057 0 00.785-3.987L175.749 8.6a7.936 7.936 0 00-2.049-6.033zm-44.315 63.382h23.982l4.09 13.358h-32.16z"/><path data-name="Path 989" d="M51.43 44.188H29.448a4.9 4.9 0 01-4.91-4.5l-2.539-28.933A11.722 11.722 0 0010.258 0H7.911A7.912 7.912 0 00.03 8.6l3.516 40.069A18.939 18.939 0 0017.241 65.23L8.825 92.717a2.575 2.575 0 104.924 1.508l2.991-9.768h35.317l2.991 9.768a2.575 2.575 0 004.924-1.508l-3.546-11.582-.01-.034-4.64-15.152h4.711a7.725 7.725 0 007.717-7.717v-1.269A12.788 12.788 0 0051.43 44.188zM18.317 79.307l4.09-13.359h23.982l4.09 13.359zm40.737-21.076a2.57 2.57 0 01-2.567 2.567H22.405a14.117 14.117 0 01-1.626-.1 13.694 13.694 0 01-12.1-12.48L5.16 8.152a2.762 2.762 0 012.751-3h2.347a6.6 6.6 0 016.611 6.056l2.539 28.934a10.024 10.024 0 0010.041 9.2h21.98a7.633 7.633 0 017.624 7.624v1.27z"/><path data-name="Path 990" d="M107.44 87.553a9.273 9.273 0 00-8.972-6.937h-1.594V33.741h31.707a6.052 6.052 0 005.928-7.271 11.679 11.679 0 00-11.4-9.293H69.578a2.575 2.575 0 000 5.15h53.533a6.51 6.51 0 016.353 5.18.9.9 0 01-.883 1.084H47.196a.9.9 0 01-.883-1.084 6.51 6.51 0 016.353-5.18h4.836a2.575 2.575 0 000-5.15h-4.835a11.679 11.679 0 00-11.4 9.293 6.052 6.052 0 005.928 7.27h31.707v46.875h-1.594a9.273 9.273 0 00-8.972 6.937l-.6 2.323a4.929 4.929 0 004.77 6.17h30.772a4.929 4.929 0 004.77-6.17zM84.053 33.741h7.672v46.875h-7.672zM72.788 90.896l.533-2.047a4.121 4.121 0 013.988-3.083h21.158a4.121 4.121 0 013.988 3.083l.533 2.047z" fill="#ffcc2a"/></g></svg><svg data-name="Group 1375" width="175.779" height="96.047" viewBox="0 0 175.779 96.047" id="table-chair-black" x="175.779" xmlns="http://www.w3.org/2000/svg"><g data-name="Group 1374" fill="#484848"><path data-name="Path 988" d="M173.7 2.567A7.929 7.929 0 00167.867 0h-2.347a11.722 11.722 0 00-11.741 10.755l-2.54 28.934a4.9 4.9 0 01-4.91 4.5h-21.981a12.788 12.788 0 00-12.774 12.774v1.269a7.726 7.726 0 007.717 7.717h4.711l-4.64 15.152-.01.034-3.546 11.582a2.575 2.575 0 104.924 1.508l2.991-9.768h35.317l2.991 9.768a2.575 2.575 0 104.924-1.508l-8.417-27.488a18.878 18.878 0 004.244-1.781 2.575 2.575 0 10-2.562-4.467 13.783 13.783 0 01-6.846 1.819h-34.08a2.57 2.57 0 01-2.567-2.567v-1.269a7.633 7.633 0 017.624-7.624h21.981a10.024 10.024 0 0010.041-9.2l2.539-28.935a6.6 6.6 0 016.611-6.056h2.347a2.762 2.762 0 012.751 3l-3.516 40.069a13.85 13.85 0 01-.572 2.906 2.575 2.575 0 004.917 1.532 19.057 19.057 0 00.785-3.987L175.749 8.6a7.936 7.936 0 00-2.049-6.033zm-44.315 63.382h23.982l4.09 13.358h-32.16z"/><path data-name="Path 989" d="M51.43 44.188H29.448a4.9 4.9 0 01-4.91-4.5l-2.539-28.933A11.722 11.722 0 0010.258 0H7.911A7.912 7.912 0 00.03 8.6l3.516 40.069A18.939 18.939 0 0017.241 65.23L8.825 92.717a2.575 2.575 0 104.924 1.508l2.991-9.768h35.317l2.991 9.768a2.575 2.575 0 004.924-1.508l-3.546-11.582-.01-.034-4.64-15.152h4.711a7.725 7.725 0 007.717-7.717v-1.269A12.788 12.788 0 0051.43 44.188zM18.317 79.307l4.09-13.359h23.982l4.09 13.359zm40.737-21.076a2.57 2.57 0 01-2.567 2.567H22.405a14.117 14.117 0 01-1.626-.1 13.694 13.694 0 01-12.1-12.48L5.16 8.152a2.762 2.762 0 012.751-3h2.347a6.6 6.6 0 016.611 6.056l2.539 28.934a10.024 10.024 0 0010.041 9.2h21.98a7.633 7.633 0 017.624 7.624v1.27z"/><path data-name="Path 990" d="M107.44 87.553a9.273 9.273 0 00-8.972-6.937h-1.594V33.741h31.707a6.052 6.052 0 005.928-7.271 11.679 11.679 0 00-11.4-9.293H69.578a2.575 2.575 0 000 5.15h53.533a6.51 6.51 0 016.353 5.18.9.9 0 01-.883 1.084H47.196a.9.9 0 01-.883-1.084 6.51 6.51 0 016.353-5.18h4.836a2.575 2.575 0 000-5.15h-4.835a11.679 11.679 0 00-11.4 9.293 6.052 6.052 0 005.928 7.27h31.707v46.875h-1.594a9.273 9.273 0 00-8.972 6.937l-.6 2.323a4.929 4.929 0 004.77 6.17h30.772a4.929 4.929 0 004.77-6.17zM84.053 33.741h7.672v46.875h-7.672zM72.788 90.896l.533-2.047a4.121 4.121 0 013.988-3.083h21.158a4.121 4.121 0 013.988 3.083l.533 2.047z"/></g></svg></svg>