<?xml version="1.0" encoding="UTF-8"?><svg width="55" height="55" viewBox="0 0 55 55" xmlns="http://www.w3.org/2000/svg" xmlns:xlink="http://www.w3.org/1999/xlink"><svg width="16" height="16" viewBox="0 0 16 16" id="Checkbox" x="39" xmlns="http://www.w3.org/2000/svg"><rect x="106.5" y="216.5" width="15" height="15" rx="2" transform="translate(-106 -216)" fill="#FFF" stroke="#D1D1D6" fill-rule="evenodd"/></svg><svg width="16" height="16" viewBox="0 0 16 16" id="Checkbox-haf" x="39" y="16" xmlns="http://www.w3.org/2000/svg"><rect x="106.5" y="216.5" width="15" height="15" rx="2" transform="translate(-106 -216)" fill="#FFF" stroke="#007AFF" fill-rule="evenodd"/></svg><svg width="21" height="21" viewBox="0 0 21 21" id="Info" xmlns="http://www.w3.org/2000/svg"><g transform="translate(1 1)" fill="none" fill-rule="evenodd"><circle stroke="#007AFF" stroke-width="2" cx="9.5" cy="9.5" r="9.5"/><text font-family="Arial-BoldMT, Arial" font-size="16" font-weight="bold" fill="#007AFF"><tspan x="4.613" y="15">?</tspan></text></g></svg><svg width="18" height="18" viewBox="0 0 18 18" id="Radio_button_not_selected" x="21" xmlns="http://www.w3.org/2000/svg"><circle cx="115" cy="272" r="8" transform="translate(-106 -263)" fill="#FFF" stroke="#D1D1D6" fill-rule="evenodd"/></svg><svg width="18" height="18" viewBox="0 0 18 18" id="Radio_button_not_selected-haf" y="21" xmlns="http://www.w3.org/2000/svg"><circle cx="115" cy="272" r="8" transform="translate(-106 -263)" fill="#FFF" stroke="#007AFF" fill-rule="evenodd"/></svg><svg width="13" height="14" viewBox="0 0 13 14" id="calendar" x="16" y="39" xmlns="http://www.w3.org/2000/svg"><path d="M1 13h2.25v-2.25H1V13zm2.75 0h2.5v-2.25h-2.5V13zM1 10.25h2.25v-2.5H1v2.5zm2.75 0h2.5v-2.5h-2.5v2.5zM1 7.25h2.25V5H1v2.25zM6.75 13h2.5v-2.25h-2.5V13zm-3-5.75h2.5V5h-2.5v2.25zm6 5.75H12v-2.25H9.75V13zm-3-2.75h2.5v-2.5h-2.5v2.5zM4 3.5V1.25a.24.24 0 0 0-.074-.176A.24.24 0 0 0 3.75 1h-.5a.24.24 0 0 0-.176.074A.24.24 0 0 0 3 1.25V3.5a.24.24 0 0 0 .074.176.24.24 0 0 0 .176.074h.5a.24.24 0 0 0 .176-.074A.24.24 0 0 0 4 3.5zm5.75 6.75H12v-2.5H9.75v2.5zm-3-3h2.5V5h-2.5v2.25zm3 0H12V5H9.75v2.25zM10 3.5V1.25a.24.24 0 0 0-.074-.176A.24.24 0 0 0 9.75 1h-.5a.24.24 0 0 0-.176.074A.24.24 0 0 0 9 1.25V3.5a.24.24 0 0 0 .074.176.24.24 0 0 0 .176.074h.5a.24.24 0 0 0 .176-.074A.24.24 0 0 0 10 3.5zm3-.5v10c0 .27-.099.505-.297.703A.961.961 0 0 1 12 14H1a.961.961 0 0 1-.703-.297A.961.961 0 0 1 0 13V3c0-.27.099-.505.297-.703A.961.961 0 0 1 1 2h1v-.75c0-.344.122-.638.367-.883S2.907 0 3.25 0h.5c.344 0 .638.122.883.367S5 .907 5 1.25V2h3v-.75c0-.344.122-.638.367-.883S8.907 0 9.25 0h.5c.344 0 .638.122.883.367s.367.54.367.883V2h1c.27 0 .505.099.703.297A.961.961 0 0 1 13 3z" fill="#007AFF" fill-rule="nonzero"/></svg><svg width="10" height="6" viewBox="0 0 10 6" id="dropdown-black" x="39" y="39" xmlns="http://www.w3.org/2000/svg"><path d="M5.002 4.191L8.783.221a.688.688 0 0 1 1.01 0 .783.783 0 0 1 0 1.062L5.507 5.782a.69.69 0 0 1-.985.021L.208 1.286A.77.77 0 0 1 0 .755.77.77 0 0 1 .208.223a.688.688 0 0 1 1.01 0l3.784 3.968z" fill="#000" fill-rule="nonzero"/></svg><svg width="10" height="6" viewBox="0 0 10 6" id="dropdown-blue" x="39" y="32" xmlns="http://www.w3.org/2000/svg"><path d="M5.002 4.191L8.783.221a.688.688 0 0 1 1.01 0 .783.783 0 0 1 0 1.062L5.507 5.782a.69.69 0 0 1-.985.021L.208 1.286A.77.77 0 0 1 0 .755.77.77 0 0 1 .208.223a.688.688 0 0 1 1.01 0l3.784 3.968z" fill="#007AFF" fill-rule="nonzero"/></svg><svg width="10" height="6" viewBox="0 0 10 6" id="dropdown-gray" x="29" y="39" xmlns="http://www.w3.org/2000/svg"><path d="M5.002 4.191L8.783.221a.688.688 0 0 1 1.01 0 .783.783 0 0 1 0 1.062L5.507 5.782a.69.69 0 0 1-.985.021L.208 1.286A.77.77 0 0 1 0 .755.77.77 0 0 1 .208.223a.688.688 0 0 1 1.01 0l3.784 3.968z" fill="#8E8E93" fill-rule="nonzero"/></svg><svg width="18" height="18" viewBox="0 0 18 18" id="radio" x="18" y="21" xmlns="http://www.w3.org/2000/svg"><g transform="translate(1 1)" fill="none" fill-rule="evenodd"><circle stroke="#007AFF" fill="#FFF" cx="8" cy="8" r="8"/><circle fill="#007AFF" cx="8" cy="8" r="5"/></g></svg><svg width="16" height="16" viewBox="0 0 16 16" id="tick" y="39" xmlns="http://www.w3.org/2000/svg"><g fill="none" fill-rule="evenodd"><rect fill="#007AFF" width="16" height="16" rx="2"/><path fill="#FFF" fill-rule="nonzero" d="M4.37 7.463L3 8.953l3.648 3.354 5.982-6.99L11.092 4 6.474 9.397z"/></g></svg></svg>