<?xml version="1.0" encoding="utf-8"?><svg width="250" height="238" viewBox="0 0 250 238" xmlns="http://www.w3.org/2000/svg" xmlns:xlink="http://www.w3.org/1999/xlink"><svg width="26.45" height="22.042" viewBox="0 0 26.45 22.042" id="arrow-back" x="175.779" y="173.219" xmlns="http://www.w3.org/2000/svg"><path d="M25.348 9.918H3.362L11.781 1.9a1.103 1.103 0 00-1.52-1.6L.646 9.462A2.2 2.2 0 00.665 12.6l9.6 9.139a1.103 1.103 0 101.52-1.6L3.331 12.12h22.02a1.1 1.1 0 000-2.2z"/></svg><svg width="17.937" height="26.833" viewBox="0 0 17.937 26.833" id="chair" x="207.779" y="53.914" xmlns="http://www.w3.org/2000/svg"><path data-name="Path 989" d="M14.368 12.345H8.227a1.37 1.37 0 01-1.372-1.257l-.709-8.084a3.275 3.275 0 00-3.28-3H2.21a2.21 2.21 0 00-2.2 2.4l.982 11.194a5.291 5.291 0 003.826 4.627l-2.351 7.678a.72.72 0 101.376.421l.836-2.729h9.867l.836 2.729a.72.72 0 101.376-.421l-.991-3.236v-.01l-1.3-4.233h1.316a2.158 2.158 0 002.156-2.156v-.355a3.573 3.573 0 00-3.571-3.568zm-9.251 9.811l1.143-3.732h6.7l1.143 3.732zm11.382-5.887a.718.718 0 01-.717.717H6.259a3.941 3.941 0 01-.454-.027 3.826 3.826 0 01-3.381-3.487L1.441 2.279a.772.772 0 01.768-.839h.656a1.844 1.844 0 011.847 1.692l.709 8.084a2.8 2.8 0 002.805 2.57h6.141a2.132 2.132 0 012.13 2.13v.355z" fill="#3f3d56"/></svg><svg width="23.481" height="23.481" viewBox="0 0 23.481 23.481" id="chef" x="203.779" y="117.914" xmlns="http://www.w3.org/2000/svg"><g data-name="Group 1427"><g data-name="Group 1426" fill="#3f3d56"><path data-name="Path 1010" d="M6.404 11.207a.534.534 0 10-1.067 0c0 1.4 1.546 3.325 1.722 3.541a.534.534 0 10.825-.677 6.469 6.469 0 01-1.48-2.864z"/><path data-name="Path 1011" d="M17.61 10.673a.533.533 0 00-.534.534 6.492 6.492 0 01-1.48 2.864.534.534 0 00.825.677c.176-.215 1.722-2.139 1.722-3.541a.533.533 0 00-.533-.534z"/><path data-name="Path 1012" d="M11.741 10.673a.533.533 0 00-.534.534v3.2a.534.534 0 001.067 0v-3.2a.533.533 0 00-.533-.534z"/><path data-name="Path 1013" d="M17.611 2.135a5.589 5.589 0 00-1.012.108 6.383 6.383 0 00-9.716 0 5.6 5.6 0 00-1.013-.108 5.868 5.868 0 00-2.656 11.1L3.2 21.3a2.178 2.178 0 002.177 2.18H18.1a2.18 2.18 0 002.179-2.18v-8.072a5.867 5.867 0 00-2.668-11.093zm1.6 19.169a1.112 1.112 0 01-1.11 1.11H5.381a1.11 1.11 0 01-1.11-1.114v-2.09h14.941zm.33-8.906a.479.479 0 00-.08.041.534.534 0 00-.245.375.516.516 0 00-.006.09v5.241H4.275l.007-5.234a.549.549 0 00-.005-.088.535.535 0 00-.084-.221.529.529 0 00-.158-.155.559.559 0 00-.085-.047 4.8 4.8 0 011.92-9.2c.1 0 .213.013.32.021A6.357 6.357 0 005.336 6.4a.534.534 0 001.064 0 5.337 5.337 0 1110.673 0 .534.534 0 101.067 0 6.358 6.358 0 00-.854-3.181c.107-.008.216-.021.32-.021a4.8 4.8 0 011.931 9.2z"/></g></g></svg><svg width="21.253" height="21.253" viewBox="0 0 21.253 21.253" id="clock" x="151" y="182.06099999999998" xmlns="http://www.w3.org/2000/svg"><g data-name="Group 1388"><g data-name="Group 1387"><path data-name="Path 1001" d="M10.627 0a10.627 10.627 0 1010.626 10.627A10.639 10.639 0 0010.627 0zm0 19.457a8.831 8.831 0 118.831-8.831 8.841 8.841 0 01-8.831 8.831z" fill="#3f3d56"/></g></g><g data-name="Group 1390"><g data-name="Group 1389"><path data-name="Path 1002" d="M15.446 10.294h-4.191v-6.26a.9.9 0 10-1.8 0v7.16a.9.9 0 00.9.9h5.089a.9.9 0 100-1.8z" fill="#3f3d56"/></g></g></svg><svg width="21.253" height="21.253" viewBox="0 0 21.253 21.253" id="clock-white" x="151" y="160.808" xmlns="http://www.w3.org/2000/svg"><g data-name="Group 1388"><g data-name="Group 1387"><path data-name="Path 1001" d="M10.627 0a10.627 10.627 0 1010.626 10.627A10.639 10.639 0 0010.627 0zm0 19.457a8.831 8.831 0 118.831-8.831 8.841 8.841 0 01-8.831 8.831z" fill="#fff"/></g></g><g data-name="Group 1390"><g data-name="Group 1389"><path data-name="Path 1002" d="M15.446 10.294h-4.191v-6.26a.9.9 0 10-1.8 0v7.16a.9.9 0 00.9.9h5.089a.9.9 0 100-1.8z" fill="#fff"/></g></g></svg><svg width="23" height="23" viewBox="0 0 23 23" id="details" x="203.084" y="145.914" xmlns="http://www.w3.org/2000/svg"><path data-name="page" d="M17.609 23H5.391A5.4 5.4 0 010 17.609V5.391A5.4 5.4 0 015.391 0h12.218A5.4 5.4 0 0123 5.391v12.218A5.4 5.4 0 0117.609 23zM5.391 1.8A3.6 3.6 0 001.8 5.391v12.218A3.6 3.6 0 005.391 21.2h12.218a3.6 3.6 0 003.591-3.591V5.391A3.6 3.6 0 0017.609 1.8zm14.016 4a.9.9 0 00-.9-.9H4.492a.9.9 0 000 1.8h14.016a.9.9 0 00.898-.905zm.045 8.4a.9.9 0 00-.9-.9H13.3a.9.9 0 000 1.8h5.256a.9.9 0 00.895-.9zm0-3.594a.9.9 0 00-.9-.9H8.49a.9.9 0 000 1.8h10.063a.9.9 0 00.898-.906zm-8.8 3.594a.9.9 0 00-.9-.9h-5.26a.9.9 0 000 1.8h5.256a.9.9 0 00.898-.9zm0 3.594a.9.9 0 00-.9-.9h-5.26a.9.9 0 000 1.8h5.256a.9.9 0 00.898-.905zm6.963 0a.9.9 0 00-.9-.9H13.3a.9.9 0 000 1.8h3.414a.9.9 0 00.895-.905zM3.594 10.512a1.123 1.123 0 101.123-1.123 1.123 1.123 0 00-1.123 1.123z" fill="#b9b9b7"/></svg><svg data-name="Component 66 – 1" width="32" height="32" viewBox="0 0 32 32" id="edit" x="175.779" y="53.914" xmlns="http://www.w3.org/2000/svg"><circle data-name="Ellipse 139" cx="16" cy="16" r="16" fill="#3f3d56"/><g fill="#fff"><path data-name="Path 1016" d="M23.851 18.397a.455.455 0 00-.455.455v4.037a1.365 1.365 0 01-1.364 1.364H9.273a1.365 1.365 0 01-1.364-1.361V11.043a1.366 1.366 0 011.364-1.364h4.038a.455.455 0 000-.909H9.273A2.276 2.276 0 007 11.043v11.849a2.276 2.276 0 002.273 2.273h12.759a2.276 2.276 0 002.273-2.273v-4.038a.455.455 0 00-.455-.455zm0 0"/><path data-name="Path 1017" d="M24.129 7.599a2.046 2.046 0 00-2.894 0l-8.116 8.112a.455.455 0 00-.117.2l-1.067 3.851a.455.455 0 00.559.56l3.851-1.067a.455.455 0 00.2-.117l8.112-8.112a2.048 2.048 0 000-2.894zM14.11 16.007l6.639-6.639 2.141 2.141-6.639 6.639zm-.428.858l1.711 1.711-2.366.656zm10.333-6.482l-.482.482-2.141-2.141.482-.482a1.137 1.137 0 011.607 0l.534.534a1.138 1.138 0 01.001 1.607zm0 0"/></g></svg><svg data-name="Group 1385" width="22.175" height="22.175" viewBox="0 0 22.175 22.175" id="info" x="175.779" y="195.261" xmlns="http://www.w3.org/2000/svg"><path data-name="Path 1000" d="M11.087 0a11.087 11.087 0 1011.088 11.087A11.1 11.1 0 0011.087 0zm0 20.789a9.7 9.7 0 119.7-9.7 9.712 9.712 0 01-9.7 9.7z" fill="#3f3d56"/><g data-name="Group 1384" fill="#3f3d56"><path data-name="Path 998" d="M12.87 16.669h-.93V9.226a.931.931 0 00-.93-.93h-1.4a.93.93 0 100 1.861h.465v6.512h-.93a.93.93 0 000 1.861h3.721a.93.93 0 000-1.861zm0 0"/><path data-name="Path 999" d="M11.014 6.436a1.4 1.4 0 10-1.4-1.4 1.4 1.4 0 001.4 1.4zm0 0"/></g></svg><svg width="151" height="141.797" viewBox="0 0 151 141.797" id="kitchen" y="96.047" xmlns="http://www.w3.org/2000/svg"><g data-name="Group 1377"><g data-name="Group 1376" fill="#ffcc2a"><path data-name="Path 980" d="M21.194 80.326a2.214 2.214 0 003.091 3.171c4.425-4.313 2.613-7.863 1.412-10.213-1.127-2.2-1.593-3.117.782-5.352a2.214 2.214 0 00-3.035-3.224c-4.8 4.514-2.927 8.171-1.69 10.591 1.081 2.116 1.529 2.991-.56 5.026zm0 0"/><path data-name="Path 981" d="M33.45 68.455a2.214 2.214 0 003.091 3.171c4.428-4.316 2.61-7.866 1.408-10.214-1.128-2.2-1.6-3.117.778-5.351a2.214 2.214 0 10-3.035-3.224c-4.8 4.515-2.924 8.172-1.685 10.593 1.083 2.115 1.531 2.991-.557 5.025zm0 0"/><path data-name="Intersection 1" d="M44.147 141.797a2.214 2.214 0 010-4.428h23.06a2.119 2.119 0 002.115-2.119v-4.516a1.908 1.908 0 00-.012-.216 2.273 2.273 0 01-.033-.217 2.118 2.118 0 00-2.07-1.685H21.095a2.118 2.118 0 00-2.114 2.118v4.522a2.118 2.118 0 002.114 2.119H34.06a2.214 2.214 0 010 4.428H21.095a6.551 6.551 0 01-6.541-6.547v-4.522a6.551 6.551 0 016.541-6.546h2.153a31.672 31.672 0 01-10.011-12.838H7.484a7.493 7.493 0 01-.724-14.949h72.469a7.439 7.439 0 013.749 1.007 7.545 7.545 0 013.094 3.538h.035a7.516 7.516 0 01.446 4.426h-.044a7.5 7.5 0 01-7.34 5.977h-5.778a32.765 32.765 0 01-10 12.835h3.82a6.55 6.55 0 015.871 3.662l.089-.048a5.977 5.977 0 01.592 2.6v1.876h-.013v2.977a6.552 6.552 0 01-6.543 6.547zm-28.432-40.813c-.321.4-.5 1.606-.122 3.3a27.55 27.55 0 0016.544 19.9h22.6a28.261 28.261 0 0016.323-19.9c.374-1.7.2-2.9-.12-3.3-.046-.058-.155-.192-.642-.192H16.354c-.484.001-.594.135-.639.192zm59.667 4.256a33.565 33.565 0 01-.422 1.681h4.207a3.065 3.065 0 000-6.13h-3.629a10.947 10.947 0 01-.156 4.449zm-70.954-1.379a3.061 3.061 0 003.056 3.06h4.206a36.394 36.394 0 01-.42-1.678 10.928 10.928 0 01-.154-4.449H7.484a3.066 3.066 0 00-3.056 3.067z"/></g><path data-name="Path 984" d="M80.069 28.754a2.214 2.214 0 002.213-2.214V16.371a2.214 2.214 0 00-4.428 0V26.54a2.214 2.214 0 002.215 2.214zm0 0"/><path data-name="Path 985" d="M65.036 18.754a2.214 2.214 0 00-2.213 2.214v10.16a2.214 2.214 0 004.428 0v-10.16a2.214 2.214 0 00-2.215-2.214zm0 0"/><path data-name="Path 986" d="M95.1 33.342a2.214 2.214 0 002.213-2.214V20.967a2.214 2.214 0 00-4.428 0v10.16a2.214 2.214 0 002.215 2.215zm0 0"/><path data-name="Subtraction 1" d="M137.71 139.351h-4.05a7.432 7.432 0 01-7.408-7.078H76.28v-2.835a6.014 6.014 0 00-.214-1.593h39.394l-3.5-20.218c-.038-.231-.415-2.256-1.9-2.256H89.541a9.322 9.322 0 00-.243-4.426h8.453V89.426a23.688 23.688 0 01-8.346 3.771 37.629 37.629 0 01-9.16 1.114c-.468 0-.95-.009-1.433-.028-6.255-.24-11.984-1.94-15.718-4.665V94.4h-4.426v-7.847a14.032 14.032 0 01-1.827.185c-1.309.062-2.6.171-3.847.323V94.4h-4.427v-6.535c-4.942 1.235-8.466 3.37-10.772 6.535H32.62a18.749 18.749 0 016.722-7.418 29.5 29.5 0 0110.984-4h.024a51.537 51.537 0 016.3-.668h.032a7.589 7.589 0 003.144-.706h.005a7.306 7.306 0 002.84-2.651c-1.03-.8-2-1.629-2.888-2.469-3.823-3.617-8.367-9.488-8.367-16.955V28.952a12.2 12.2 0 01-4.256-5.322 9.933 9.933 0 01-.252-6.366c1.571-5.495 7.178-9.332 13.637-9.332h5.965A17.3 17.3 0 0181.108 0c.552 0 1.11.027 1.659.079 5.372.514 9.566 3.376 11.507 7.853h6.245c6.365 0 11.892 3.781 13.441 9.2a10.013 10.013 0 01-.262 6.439 12.387 12.387 0 01-4.325 5.388v14.527a2.152 2.152 0 010 .644v14.255c0 7.126-3.525 14.06-9.924 19.523-.406.347-.848.7-1.391 1.12a7.32 7.32 0 002.768 2.562l.062.03.041.02a7.623 7.623 0 003.066.671.171.171 0 01.031 0c14.591.691 23.233 6.318 25.689 16.724l2.112 8.95a7.409 7.409 0 011.837-.23h1.833v-31h-2.486a8.6 8.6 0 01-8.59-8.6V48.876a8.6 8.6 0 018.59-8.595h9.4a8.6 8.6 0 018.59 8.595v19.279a8.6 8.6 0 01-8.59 8.6h-2.487v31.222a11.492 11.492 0 019.251 11.255v8.648a11.482 11.482 0 01-11.465 11.471zm-4.05-27.167a2.986 2.986 0 00-1.871.664l-.059.049a2.992 2.992 0 00-1.058 2.282v16.74a3 3 0 002.99 3h4.047a7.049 7.049 0 007.036-7.045v-8.648a7.049 7.049 0 00-7.036-7.045zM112.28 87.91v13.46a6.988 6.988 0 014.05 5.515l3.62 20.96h6.3v-12.666a7.342 7.342 0 011.632-4.639l-2.474-10.486c-1.483-6.291-5.776-10.263-13.124-12.145zm-10.1-1.327v14.362h5.674V87.084a50.92 50.92 0 00-4.021-.348 13.767 13.767 0 01-1.652-.153zM66.314 81.47a12.693 12.693 0 01-2.488 2.776c2.552 3.2 8.359 5.352 15.156 5.612.43.016.869.025 1.3.025 5.665 0 12.994-1.478 16.575-5.626a12.611 12.611 0 01-2.471-2.741 31.64 31.64 0 01-13.96 4.565c-.215.012-.433.018-.645.018-3.769 0-8.68-1.687-13.471-4.63zm9.312-42.933a2.214 2.214 0 01.1 4.426c-3.274.134-6.63.425-9.973.865a12.318 12.318 0 01-4.907 9.792 16.861 16.861 0 01-5 2.594v3.32c0 5.892 3.8 10.72 6.98 13.733a34.635 34.635 0 003.9 3.182 2.39 2.39 0 01.227.157c4.451 3.077 9.487 5.066 12.831 5.068.129 0 .26 0 .4-.012 5.31-.3 11.59-3.024 16.388-7.12 5.4-4.609 8.371-10.346 8.371-16.156v-2.14a17.015 17.015 0 01-4.72-2.336 12.314 12.314 0 01-5.278-10.076c-3.037-.4-6.042-.674-8.932-.823a2.214 2.214 0 01.111-4.426h.117c3.649.189 7.4.563 11.158 1.112h.089a2.22 2.22 0 01.282.051c2.435.364 4.848.8 7.172 1.285V27.779a2.2 2.2 0 011.044-1.879c3.167-1.973 4.52-4.726 3.712-7.554-.825-2.883-4.05-5.987-9.183-5.987h-7.8a2.225 2.225 0 01-2.127-1.6c-1.028-3.534-4.112-5.881-8.25-6.277-.384-.037-.78-.055-1.177-.055a12.7 12.7 0 00-11.401 6.729 2.2 2.2 0 01-1.971 1.2h-7.25c-5.01 0-8.51 3.079-9.379 6.12-.808 2.822.483 5.457 3.635 7.421a2.2 2.2 0 011.043 1.879v13.267c2.362-.5 4.762-.939 7.133-1.3.078-.017.154-.029.232-.038a.357.357 0 01.041 0h.016a116.138 116.138 0 0112.28-1.166zm57.385 6.172a4.17 4.17 0 00-4.162 4.168v19.278a4.17 4.17 0 004.162 4.169h9.4a4.17 4.17 0 004.162-4.169V48.876a4.169 4.169 0 00-4.162-4.168zm-33.578-.2a8.541 8.541 0 005.512 7.039V45.58c-1.835-.4-3.69-.763-5.512-1.072zm-38.172 0c-1.818.313-3.641.672-5.417 1.066v5.918a8.551 8.551 0 005.416-6.983z"/></g></svg><svg width="17" height="3" viewBox="0 0 17 3" id="minus" x="228.487" y="101.884" xmlns="http://www.w3.org/2000/svg"><path d="M15.317 0H1.502a1.502 1.502 0 000 3.003h13.815a1.502 1.502 0 000-3.003z"/></svg><svg width="21.221" height="21.221" viewBox="0 0 21.221 21.221" id="minus-circle" x="228.487" y="42.442" xmlns="http://www.w3.org/2000/svg"><path data-name="minus" d="M10.61 0a10.61 10.61 0 1010.61 10.61A10.622 10.622 0 0010.61 0zm4.642 11.495H5.968a.884.884 0 010-1.768h9.284a.884.884 0 010 1.768zm0 0" fill="#3f3d56"/></svg><svg width="21.221" height="21.221" viewBox="0 0 21.221 21.221" id="minus-circle-white" x="228.487" y="21.221" xmlns="http://www.w3.org/2000/svg"><path data-name="minus" d="M10.61 0a10.61 10.61 0 1010.61 10.61A10.622 10.622 0 0010.61 0zm4.642 11.495H5.968a.884.884 0 010-1.768h9.284a.884.884 0 010 1.768zm0 0" fill="#fff"/></svg><svg width="17" height="17" viewBox="0 0 17 17" id="plus" x="228.487" y="84.884" xmlns="http://www.w3.org/2000/svg"><path d="M15.317 6.907H10.21a.3.3 0 01-.3-.3V1.502a1.502 1.502 0 00-3.003 0v5.105a.3.3 0 01-.3.3H1.501a1.502 1.502 0 000 3.004h5.105a.3.3 0 01.3.3v5.106a1.502 1.502 0 003.004 0V10.21a.3.3 0 01.3-.3h5.106a1.502 1.502 0 000-3.004z"/></svg><svg width="21.221" height="21.221" viewBox="0 0 21.221 21.221" id="plus-circle" x="228.487" y="63.663" xmlns="http://www.w3.org/2000/svg"><path data-name="more" d="M10.61 0a10.61 10.61 0 1010.61 10.61A10.622 10.622 0 0010.61 0zm4.642 11.495h-3.757v3.758a.884.884 0 01-1.768 0v-3.758H5.968a.884.884 0 010-1.768h3.758V5.968a.884.884 0 011.768 0v3.758h3.758a.884.884 0 010 1.768zm0 0" fill="#3f3d56"/></svg><svg width="21.221" height="21.221" viewBox="0 0 21.221 21.221" id="plus-circle-white" x="228.487" xmlns="http://www.w3.org/2000/svg"><path data-name="more" d="M10.61 0a10.61 10.61 0 1010.61 10.61A10.622 10.622 0 0010.61 0zm4.642 11.495h-3.757v3.758a.884.884 0 01-1.768 0v-3.758H5.968a.884.884 0 010-1.768h3.758V5.968a.884.884 0 011.768 0v3.758h3.758a.884.884 0 010 1.768zm0 0" fill="#fff"/></svg><svg data-name="Component 129 – 1" width="27.305" height="27.305" viewBox="0 0 27.305 27.305" id="plus-circle-yellow" x="175.779" y="145.914" xmlns="http://www.w3.org/2000/svg"><path data-name="Rectangle 1979" fill="#fff" d="M5 5.794h18v16H5z"/><path d="M13.653 0a13.653 13.653 0 1013.652 13.653A13.668 13.668 0 0013.653 0zm5.973 14.79H14.79v4.835a1.138 1.138 0 11-2.275 0V14.79H7.68a1.138 1.138 0 110-2.275h4.835V7.68a1.138 1.138 0 112.275 0v4.835h4.835a1.138 1.138 0 110 2.275zm0 0" fill="#ffcc2a"/></svg><svg data-name="Group 1386" width="22.175" height="22.175" viewBox="0 0 22.175 22.175" id="pound" x="197.954" y="195.261" xmlns="http://www.w3.org/2000/svg"><path data-name="Path 995" d="M11.087 0a11.087 11.087 0 1011.088 11.087A11.1 11.1 0 0011.087 0zm0 20.789a9.7 9.7 0 119.7-9.7 9.712 9.712 0 01-9.7 9.7z" fill="#3f3d56"/><path data-name="Path 996" d="M11.781 4.158a3.469 3.469 0 00-3.465 3.465v3.464H6.93v1.386h1.3a7.537 7.537 0 01-1.188 3.08.693.693 0 00.577 1.077h7.623v-1.389h-6.43a8.887 8.887 0 00.812-2.77h2.846v-1.383H9.701V7.623a2.08 2.08 0 114.159 0v.687h1.386v-.687a3.465 3.465 0 00-3.465-3.472z" fill="#3f3d56"/></svg><svg data-name="Group 1386" width="22.175" height="22.175" viewBox="0 0 22.175 22.175" id="pound-white" x="151" y="96.047" xmlns="http://www.w3.org/2000/svg"><path data-name="Path 995" d="M11.087 0a11.087 11.087 0 1011.088 11.087A11.1 11.1 0 0011.087 0zm0 20.789a9.7 9.7 0 119.7-9.7 9.712 9.712 0 01-9.7 9.7z" fill="#fff"/><path data-name="Path 996" d="M11.781 4.158a3.469 3.469 0 00-3.465 3.465v3.464H6.93v1.386h1.3a7.537 7.537 0 01-1.188 3.08.693.693 0 00.577 1.077h7.623v-1.389h-6.43a8.887 8.887 0 00.812-2.77h2.846v-1.383H9.701V7.623a2.08 2.08 0 114.159 0v.687h1.386v-.687a3.465 3.465 0 00-3.465-3.472z" fill="#fff"/></svg><svg data-name="Component 67 – 1" width="32" height="32" viewBox="0 0 32 32" id="remove" x="175.779" y="85.914" xmlns="http://www.w3.org/2000/svg"><circle data-name="Ellipse 140" cx="16" cy="16" r="16" fill="#3f3d56"/><g fill="#fff"><path data-name="Path 1018" d="M18.542 13.015a.454.454 0 00-.454.454v8.573a.454.454 0 00.907 0v-8.573a.454.454 0 00-.453-.454zm0 0"/><path data-name="Path 1019" d="M13.19 13.015a.454.454 0 00-.454.454v8.573a.454.454 0 10.907 0v-8.573a.454.454 0 00-.453-.454zm0 0"/><path data-name="Path 1020" d="M9.288 11.767v11.176a2.5 2.5 0 00.665 1.726 2.234 2.234 0 001.621.7h8.582a2.233 2.233 0 001.621-.7 2.5 2.5 0 00.665-1.726V11.767a1.733 1.733 0 00-.439-3.408h-2.327v-.567a1.782 1.782 0 00-1.797-1.79h-4.028a1.782 1.782 0 00-1.8 1.792v.567H9.733a1.733 1.733 0 00-.445 3.408zm10.869 12.7h-8.583a1.437 1.437 0 01-1.379-1.52V11.802h11.34v11.141a1.437 1.437 0 01-1.379 1.52zM12.962 7.792a.874.874 0 01.889-.884h4.028a.874.874 0 01.889.885v.567h-5.806zM9.733 9.267h12.27a.818.818 0 010 1.635H9.733a.817.817 0 010-1.633zm0 0"/><path data-name="Path 1021" d="M15.866 13.015a.454.454 0 00-.454.454v8.573a.454.454 0 00.907 0v-8.573a.454.454 0 00-.453-.454zm0 0"/></g></svg><svg width="28" height="28" viewBox="0 0 28 28" id="settings" x="175.779" y="117.914" xmlns="http://www.w3.org/2000/svg"><path d="M27.341 10.812l-2.152-.468a11.712 11.712 0 00-.693-1.67l1.191-1.853a.837.837 0 00-.112-1.044l-3.352-3.353a.837.837 0 00-1.044-.112L19.326 3.5a11.712 11.712 0 00-1.67-.693L17.188.659A.837.837 0 0016.37 0h-4.741a.837.837 0 00-.818.659l-.468 2.152a11.712 11.712 0 00-1.67.693L6.821 2.312a.837.837 0 00-1.044.112L2.424 5.777a.837.837 0 00-.112 1.044L3.5 8.674a11.712 11.712 0 00-.693 1.67l-2.152.468a.837.837 0 00-.655.817v4.741a.837.837 0 00.659.818l2.152.468a11.712 11.712 0 00.693 1.67l-1.192 1.853a.837.837 0 00.112 1.044l3.353 3.353a.837.837 0 001.044.112L8.674 24.5a11.712 11.712 0 001.67.693l.468 2.152a.837.837 0 00.818.659h4.74a.837.837 0 00.818-.659l.468-2.152a11.712 11.712 0 001.67-.693l1.853 1.191a.837.837 0 001.044-.112l3.353-3.353a.837.837 0 00.112-1.044L24.5 19.326a11.712 11.712 0 00.693-1.67l2.152-.468A.837.837 0 0028 16.37v-4.741a.837.837 0 00-.659-.817zM19.02 14A5.02 5.02 0 1114 8.98 5.026 5.026 0 0119.02 14zm0 0"/></svg><svg width="21.24" height="21.24" viewBox="0 0 21.24 21.24" id="stop" x="151" y="203.31399999999996" xmlns="http://www.w3.org/2000/svg"><g data-name="Group 1431"><path data-name="Path 1014" d="M10.62 0a10.62 10.62 0 1010.62 10.62A10.614 10.614 0 0010.62 0zm4.319 13.938a.708.708 0 01-1 1l-3.319-3.317-3.32 3.318a.708.708 0 01-1-1l3.319-3.319L6.3 7.3a.708.708 0 011-1l3.32 3.319L13.938 6.3a.708.708 0 011 1l-3.317 3.32z" fill="#3f3d56"/></g></svg><svg width="26.119" height="22.034" viewBox="0 0 26.119 22.034" id="table" x="202.22899999999998" y="173.219" xmlns="http://www.w3.org/2000/svg"><path data-name="Path 990" d="M18.522 19.661a2.591 2.591 0 00-2.507-1.938h-.445v-13.1h8.858a1.691 1.691 0 001.656-2.031 3.263 3.263 0 00-3.184-2.6H7.944a.72.72 0 000 1.439H22.9a1.819 1.819 0 011.775 1.447.252.252 0 01-.247.3H1.691a.252.252 0 01-.247-.3 1.819 1.819 0 011.775-1.447H4.57a.72.72 0 000-1.439H3.219a3.263 3.263 0 00-3.184 2.6 1.691 1.691 0 001.656 2.031h8.858v13.1h-.445a2.591 2.591 0 00-2.507 1.938l-.169.649a1.377 1.377 0 001.333 1.724h8.6a1.377 1.377 0 001.333-1.724zM11.988 4.627h2.143v13.1h-2.143zM8.841 20.595l.149-.572a1.151 1.151 0 011.114-.861h5.911a1.151 1.151 0 011.114.861l.149.572z" fill="#3f3d56"/></svg><svg width="45.961" height="25.114" viewBox="0 0 45.961 25.114" id="table-chair" x="175.779" y="28.8" xmlns="http://www.w3.org/2000/svg"><g data-name="Group 1375"><g data-name="Group 1374" fill="#3f3d56"><path data-name="Path 988" d="M45.418.671A2.073 2.073 0 0043.893 0h-.614a3.065 3.065 0 00-3.07 2.812l-.664 7.566a1.282 1.282 0 01-1.284 1.176h-5.747a3.344 3.344 0 00-3.34 3.34v.332a2.02 2.02 0 002.018 2.018h1.232l-1.213 3.962v.009l-.927 3.028a.673.673 0 101.287.394l.782-2.554h9.232l.782 2.554a.673.673 0 101.287-.394l-2.2-7.187a4.935 4.935 0 001.11-.466.673.673 0 10-.67-1.168 3.6 3.6 0 01-1.79.475h-8.911a.672.672 0 01-.671-.671v-.332a2 2 0 011.994-1.993h5.747a2.621 2.621 0 002.625-2.4l.664-7.566a1.726 1.726 0 011.729-1.583h.614a.722.722 0 01.719.785l-.919 10.477a3.623 3.623 0 01-.15.76.673.673 0 001.286.4 4.982 4.982 0 00.205-1.043l.919-10.477a2.075 2.075 0 00-.537-1.583zM33.831 17.244h6.271l1.07 3.493h-8.41z"/><path data-name="Path 989" d="M13.447 11.554H7.699a1.282 1.282 0 01-1.283-1.175l-.664-7.566A3.065 3.065 0 002.682.001h-.614a2.069 2.069 0 00-2.06 2.248l.919 10.477a4.952 4.952 0 003.581 4.33l-2.2 7.186a.673.673 0 101.287.394l.782-2.554h9.234l.782 2.554a.673.673 0 101.287-.394l-.927-3.028v-.009l-1.213-3.962h1.232a2.02 2.02 0 002.018-2.018v-.332a3.344 3.344 0 00-3.343-3.339zm-8.658 9.183l1.069-3.493h6.271l1.07 3.493zm10.652-5.511a.672.672 0 01-.671.671H5.858a3.69 3.69 0 01-.425-.025 3.581 3.581 0 01-3.164-3.263l-.92-10.477a.722.722 0 01.719-.785h.614A1.726 1.726 0 014.41 2.931l.664 7.566a2.621 2.621 0 002.625 2.4h5.747a2 2 0 011.993 1.993v.332z"/><path data-name="Path 990" d="M28.093 22.893a2.425 2.425 0 00-2.346-1.814h-.417V8.823h8.29a1.582 1.582 0 001.55-1.9 3.054 3.054 0 00-2.98-2.43h-14a.673.673 0 000 1.347h14a1.7 1.7 0 011.661 1.354.236.236 0 01-.231.283H12.34a.236.236 0 01-.231-.283 1.7 1.7 0 011.661-1.355h1.264a.673.673 0 000-1.347H13.77a3.054 3.054 0 00-2.98 2.43 1.582 1.582 0 001.55 1.9h8.291v12.257h-.414a2.425 2.425 0 00-2.346 1.814l-.158.607a1.289 1.289 0 001.247 1.613h8.046a1.289 1.289 0 001.247-1.613zm-6.115-14.07h2.006V21.08h-2.006zm-2.945 14.944l.139-.535a1.078 1.078 0 011.043-.806h5.532a1.078 1.078 0 011.043.806l.139.535z"/></g></g></svg><svg width="52.708" height="28.8" viewBox="0 0 52.708 28.8" id="table-chair-white" x="175.779" xmlns="http://www.w3.org/2000/svg"><g data-name="Group 1375"><g data-name="Group 1374" fill="#fff"><path data-name="Path 988" d="M52.085.77A2.378 2.378 0 0050.336 0h-.7a3.515 3.515 0 00-3.521 3.225l-.761 8.676a1.47 1.47 0 01-1.473 1.349H37.29a3.835 3.835 0 00-3.83 3.83v.381a2.317 2.317 0 002.307 2.319h1.413l-1.391 4.544v.01l-1.063 3.473a.772.772 0 101.476.452l.9-2.929h10.59l.9 2.929a.772.772 0 001.476-.452l-2.524-8.242a5.66 5.66 0 001.273-.534.772.772 0 10-.768-1.34 4.133 4.133 0 01-2.053.545H35.767a.771.771 0 01-.77-.77v-.386a2.289 2.289 0 012.286-2.286h6.591a3.006 3.006 0 003.011-2.758l.761-8.676a1.979 1.979 0 011.982-1.816h.7a.828.828 0 01.825.9l-1.054 12.015a4.153 4.153 0 01-.171.871.772.772 0 001.474.459 5.714 5.714 0 00.235-1.2l1.054-12.015A2.38 2.38 0 0052.085.77zM38.798 19.78h7.191l1.227 4.006h-9.649z"/><path data-name="Path 989" d="M15.421 13.25H8.83a1.47 1.47 0 01-1.472-1.349l-.759-8.676A3.515 3.515 0 003.078 0h-.7A2.372 2.372 0 00.009 2.579l1.054 12.015A5.679 5.679 0 005.17 19.56l-2.524 8.241a.772.772 0 101.476.452l.9-2.929h10.587l.9 2.929a.772.772 0 101.476-.452l-1.066-3.472v-.01l-1.394-4.54h1.413a2.316 2.316 0 002.314-2.314v-.386a3.835 3.835 0 00-3.831-3.829zM5.492 23.779l1.227-4h7.191l1.227 4.006zm12.215-6.32a.771.771 0 01-.77.77H6.718a4.23 4.23 0 01-.488-.029 4.106 4.106 0 01-3.631-3.741L1.547 2.445a.828.828 0 01.825-.9h.7a1.979 1.979 0 011.982 1.816l.761 8.676a3.006 3.006 0 003.011 2.758h6.591a2.289 2.289 0 012.286 2.286v.381z"/><path data-name="Path 990" d="M32.217 26.253a2.78 2.78 0 00-2.69-2.08h-.478V10.118h9.508a1.815 1.815 0 001.777-2.18 3.5 3.5 0 00-3.418-2.786H20.864a.772.772 0 000 1.544h16.052a1.952 1.952 0 011.905 1.553.27.27 0 01-.265.325h-24.4a.27.27 0 01-.265-.325 1.952 1.952 0 011.905-1.554h1.45a.772.772 0 000-1.544h-1.45a3.5 3.5 0 00-3.418 2.787 1.815 1.815 0 001.777 2.18h9.508v14.056h-.478a2.78 2.78 0 00-2.69 2.08l-.181.7a1.478 1.478 0 001.43 1.85h9.227a1.478 1.478 0 001.43-1.85zm-7.013-16.136h2.3v14.056h-2.3zm-3.378 17.138l.16-.614a1.236 1.236 0 011.2-.925h6.344a1.236 1.236 0 011.2.925l.16.614z"/></g></g></svg><svg data-name="Group 1375" width="175.779" height="96.047" viewBox="0 0 175.779 96.047" id="table-chair-yellow" xmlns="http://www.w3.org/2000/svg"><g data-name="Group 1374"><path data-name="Path 988" d="M173.7 2.567A7.929 7.929 0 00167.867 0h-2.347a11.722 11.722 0 00-11.741 10.755l-2.54 28.934a4.9 4.9 0 01-4.91 4.5h-21.981a12.788 12.788 0 00-12.774 12.774v1.269a7.726 7.726 0 007.717 7.717h4.711l-4.64 15.152-.01.034-3.546 11.582a2.575 2.575 0 104.924 1.508l2.991-9.768h35.317l2.991 9.768a2.575 2.575 0 104.924-1.508l-8.417-27.488a18.878 18.878 0 004.244-1.781 2.575 2.575 0 10-2.562-4.467 13.783 13.783 0 01-6.846 1.819h-34.08a2.57 2.57 0 01-2.567-2.567v-1.269a7.633 7.633 0 017.624-7.624h21.981a10.024 10.024 0 0010.041-9.2l2.539-28.935a6.6 6.6 0 016.611-6.056h2.347a2.762 2.762 0 012.751 3l-3.516 40.069a13.85 13.85 0 01-.572 2.906 2.575 2.575 0 004.917 1.532 19.057 19.057 0 00.785-3.987L175.749 8.6a7.936 7.936 0 00-2.049-6.033zm-44.315 63.382h23.982l4.09 13.358h-32.16z"/><path data-name="Path 989" d="M51.43 44.188H29.448a4.9 4.9 0 01-4.91-4.5l-2.539-28.933A11.722 11.722 0 0010.258 0H7.911A7.912 7.912 0 00.03 8.6l3.516 40.069A18.939 18.939 0 0017.241 65.23L8.825 92.717a2.575 2.575 0 104.924 1.508l2.991-9.768h35.317l2.991 9.768a2.575 2.575 0 004.924-1.508l-3.546-11.582-.01-.034-4.64-15.152h4.711a7.725 7.725 0 007.717-7.717v-1.269A12.788 12.788 0 0051.43 44.188zM18.317 79.307l4.09-13.359h23.982l4.09 13.359zm40.737-21.076a2.57 2.57 0 01-2.567 2.567H22.405a14.117 14.117 0 01-1.626-.1 13.694 13.694 0 01-12.1-12.48L5.16 8.152a2.762 2.762 0 012.751-3h2.347a6.6 6.6 0 016.611 6.056l2.539 28.934a10.024 10.024 0 0010.041 9.2h21.98a7.633 7.633 0 017.624 7.624v1.27z"/><path data-name="Path 990" d="M107.44 87.553a9.273 9.273 0 00-8.972-6.937h-1.594V33.741h31.707a6.052 6.052 0 005.928-7.271 11.679 11.679 0 00-11.4-9.293H69.578a2.575 2.575 0 000 5.15h53.533a6.51 6.51 0 016.353 5.18.9.9 0 01-.883 1.084H47.196a.9.9 0 01-.883-1.084 6.51 6.51 0 016.353-5.18h4.836a2.575 2.575 0 000-5.15h-4.835a11.679 11.679 0 00-11.4 9.293 6.052 6.052 0 005.928 7.27h31.707v46.875h-1.594a9.273 9.273 0 00-8.972 6.937l-.6 2.323a4.929 4.929 0 004.77 6.17h30.772a4.929 4.929 0 004.77-6.17zM84.053 33.741h7.672v46.875h-7.672zM72.788 90.896l.533-2.047a4.121 4.121 0 013.988-3.083h21.158a4.121 4.121 0 013.988 3.083l.533 2.047z" fill="#ffcc2a"/></g></svg><svg width="21.293" height="21.293" viewBox="0 0 21.293 21.293" id="tick-circle" x="151" y="139.515" xmlns="http://www.w3.org/2000/svg"><path d="M10.646 0a10.646 10.646 0 1010.647 10.646A10.658 10.658 0 0010.646 0zm5.4 8.39l-5.767 5.767a.886.886 0 01-1.254 0l-2.887-2.883a.887.887 0 011.254-1.254l2.256 2.256 5.14-5.139a.887.887 0 011.254 1.253zm0 0" fill="#fff"/></svg><svg width="21.293" height="21.293" viewBox="0 0 21.293 21.293" id="view" x="151" y="118.222" xmlns="http://www.w3.org/2000/svg"><g fill="#3f3d56"><path data-name="Path 991" d="M8.207 7.1H1.553A1.554 1.554 0 010 5.545V1.553A1.554 1.554 0 011.553 0h6.654a1.554 1.554 0 011.552 1.553v3.992A1.554 1.554 0 018.207 7.1zM1.553 1.331a.222.222 0 00-.222.222v3.992a.222.222 0 00.222.222h6.654a.222.222 0 00.222-.222V1.553a.222.222 0 00-.222-.222zm0 0"/><path data-name="Path 992" d="M8.207 21.293H1.553A1.554 1.554 0 010 19.74v-9.316a1.554 1.554 0 011.553-1.553h6.654a1.554 1.554 0 011.553 1.553v9.316a1.554 1.554 0 01-1.553 1.553zm-6.654-11.09a.222.222 0 00-.222.222v9.315a.222.222 0 00.222.222h6.654a.222.222 0 00.222-.222v-9.316a.222.222 0 00-.222-.222zm0 0"/><path data-name="Path 993" d="M19.741 21.293h-6.654a1.554 1.554 0 01-1.553-1.553v-3.992a1.554 1.554 0 011.553-1.553h6.654a1.554 1.554 0 011.553 1.553v3.992a1.554 1.554 0 01-1.553 1.553zm-6.654-5.767a.222.222 0 00-.222.222v3.992a.222.222 0 00.222.222h6.654a.222.222 0 00.222-.222v-3.992a.222.222 0 00-.222-.222zm0 0"/><path data-name="Path 994" d="M19.741 12.421h-6.654a1.554 1.554 0 01-1.553-1.553V1.553A1.554 1.554 0 0113.087 0h6.654a1.554 1.554 0 011.553 1.553v9.316a1.554 1.554 0 01-1.553 1.552zm-6.654-11.09a.222.222 0 00-.222.222v9.316a.222.222 0 00.222.222h6.654a.222.222 0 00.222-.222V1.553a.222.222 0 00-.222-.222zm0 0"/></g></svg></svg>