<svg id="Component_67_1" data-name="Component 67 – 1" xmlns="http://www.w3.org/2000/svg" width="32" height="32" viewBox="0 0 32 32">
  <circle id="Ellipse_140" data-name="Ellipse 140" cx="16" cy="16" r="16" fill="#3f3d56"/>
  <g id="bin" transform="translate(8 6)">
    <path id="Path_1018" data-name="Path 1018" d="M222.852,154.7a.454.454,0,0,0-.454.454v8.573a.454.454,0,0,0,.907,0v-8.573A.454.454,0,0,0,222.852,154.7Zm0,0" transform="translate(-212.31 -147.685)" fill="#fff"/>
    <path id="Path_1019" data-name="Path 1019" d="M104.852,154.7a.454.454,0,0,0-.454.454v8.573a.454.454,0,1,0,.907,0v-8.573A.454.454,0,0,0,104.852,154.7Zm0,0" transform="translate(-99.662 -147.685)" fill="#fff"/>
    <path id="Path_1020" data-name="Path 1020" d="M1.285,5.765V16.941a2.5,2.5,0,0,0,.665,1.726,2.234,2.234,0,0,0,1.621.7h8.582a2.233,2.233,0,0,0,1.621-.7,2.5,2.5,0,0,0,.665-1.726V5.765A1.733,1.733,0,0,0,14,2.357H11.673V1.79A1.782,1.782,0,0,0,9.876,0H5.848a1.782,1.782,0,0,0-1.8,1.792v.567H1.73a1.733,1.733,0,0,0-.445,3.408Zm10.869,12.7H3.571a1.437,1.437,0,0,1-1.379-1.52V5.8h11.34V16.941a1.437,1.437,0,0,1-1.379,1.52ZM4.959,1.79A.874.874,0,0,1,5.848.906H9.876a.874.874,0,0,1,.889.885v.567H4.959ZM1.73,3.265H14A.816.816,0,0,1,14,4.9H1.73a.816.816,0,0,1,0-1.633Zm0,0" transform="translate(0.003 0.002)" fill="#fff"/>
    <path id="Path_1021" data-name="Path 1021" d="M163.852,154.7a.454.454,0,0,0-.454.454v8.573a.454.454,0,0,0,.907,0v-8.573A.454.454,0,0,0,163.852,154.7Zm0,0" transform="translate(-155.986 -147.685)" fill="#fff"/>
  </g>
</svg>
