<svg xmlns="http://www.w3.org/2000/svg" width="52.708" height="28.8" viewBox="0 0 52.708 28.8">
  <g id="chair" transform="translate(-0.001 -116.12)">
    <g id="Group_1375" data-name="Group 1375" transform="translate(0.001 116.12)">
      <g id="Group_1374" data-name="Group 1374">
        <path id="Path_988" data-name="Path 988" d="M343.618,116.89a2.378,2.378,0,0,0-1.749-.77h-.7a3.515,3.515,0,0,0-3.521,3.225l-.761,8.676a1.47,1.47,0,0,1-1.473,1.349h-6.591a3.835,3.835,0,0,0-3.83,3.83v.381A2.317,2.317,0,0,0,327.3,135.9h1.413l-1.391,4.544,0,.01-1.063,3.473a.772.772,0,1,0,1.476.452l.9-2.929h10.59l.9,2.929a.772.772,0,0,0,1.476-.452l-2.524-8.242a5.66,5.66,0,0,0,1.273-.534.772.772,0,1,0-.768-1.34,4.133,4.133,0,0,1-2.053.545H327.3a.771.771,0,0,1-.77-.77V133.2a2.289,2.289,0,0,1,2.286-2.286h6.591a3.006,3.006,0,0,0,3.011-2.758l.761-8.676a1.979,1.979,0,0,1,1.982-1.816h.7a.828.828,0,0,1,.825.9l-1.054,12.015a4.153,4.153,0,0,1-.171.871.772.772,0,0,0,1.474.459,5.714,5.714,0,0,0,.235-1.2l1.054-12.015A2.38,2.38,0,0,0,343.618,116.89ZM330.331,135.9h7.191l1.227,4.006H329.1Z" transform="translate(-291.533 -116.12)" fill="#fff"/>
        <path id="Path_989" data-name="Path 989" d="M15.422,129.371H8.831a1.47,1.47,0,0,1-1.472-1.349L6.6,119.346a3.515,3.515,0,0,0-3.521-3.225h-.7A2.372,2.372,0,0,0,.01,118.7l1.054,12.015a5.679,5.679,0,0,0,4.107,4.966l-2.524,8.241a.772.772,0,1,0,1.476.452l.9-2.929H15.61l.9,2.929a.772.772,0,1,0,1.476-.452L16.92,140.45l0-.01L15.526,135.9h1.413a2.316,2.316,0,0,0,2.314-2.314V133.2A3.835,3.835,0,0,0,15.422,129.371ZM5.493,139.9,6.72,135.9h7.191l1.227,4.006Zm12.215-6.32a.771.771,0,0,1-.77.77H6.719a4.23,4.23,0,0,1-.488-.029h0A4.106,4.106,0,0,1,2.6,130.58L1.548,118.566a.828.828,0,0,1,.825-.9h.7a1.979,1.979,0,0,1,1.982,1.816l.761,8.676h0a3.006,3.006,0,0,0,3.011,2.758h6.591a2.289,2.289,0,0,1,2.286,2.286v.381Z" transform="translate(-0.001 -116.121)" fill="#fff"/>
        <path id="Path_990" data-name="Path 990" d="M139.721,187.258a2.78,2.78,0,0,0-2.69-2.08h-.478V171.123h9.508a1.815,1.815,0,0,0,1.777-2.18,3.5,3.5,0,0,0-3.418-2.786H128.368a.772.772,0,0,0,0,1.544H144.42a1.952,1.952,0,0,1,1.905,1.553.27.27,0,0,1-.265.325h-24.4a.27.27,0,0,1-.265-.325A1.952,1.952,0,0,1,123.3,167.7h1.45a.772.772,0,0,0,0-1.544H123.3a3.5,3.5,0,0,0-3.418,2.787,1.815,1.815,0,0,0,1.777,2.18h9.508v14.056h-.478a2.78,2.78,0,0,0-2.69,2.08l-.181.7a1.478,1.478,0,0,0,1.43,1.85h9.227a1.478,1.478,0,0,0,1.43-1.85Zm-7.013-16.136h2.3v14.056h-2.3Zm-3.378,17.138.16-.614a1.236,1.236,0,0,1,1.2-.925h6.344a1.236,1.236,0,0,1,1.2.925l.16.614Z" transform="translate(-107.504 -161.005)" fill="#fff"/>
      </g>
    </g>
  </g>
</svg>
