<svg id="Group_1375" data-name="Group 1375" xmlns="http://www.w3.org/2000/svg" width="175.779" height="96.047" viewBox="0 0 175.779 96.047">
  <g id="Group_1374" data-name="Group 1374">
    <path id="Path_988" data-name="Path 988" d="M387.115,118.687a7.929,7.929,0,0,0-5.833-2.567h-2.347a11.722,11.722,0,0,0-11.741,10.755l-2.54,28.934a4.9,4.9,0,0,1-4.91,4.5H337.763a12.788,12.788,0,0,0-12.774,12.774v1.269a7.726,7.726,0,0,0,7.717,7.717h4.711l-4.64,15.152-.01.034-3.546,11.582a2.575,2.575,0,1,0,4.924,1.508l2.991-9.768h35.317l2.991,9.768a2.575,2.575,0,1,0,4.924-1.508l-8.417-27.488a18.878,18.878,0,0,0,4.244-1.781,2.575,2.575,0,1,0-2.562-4.467,13.783,13.783,0,0,1-6.846,1.819H332.707a2.57,2.57,0,0,1-2.567-2.567v-1.269a7.633,7.633,0,0,1,7.624-7.624h21.981a10.024,10.024,0,0,0,10.041-9.2l2.539-28.935a6.6,6.6,0,0,1,6.611-6.056h2.347a2.762,2.762,0,0,1,2.751,3l-3.516,40.069a13.85,13.85,0,0,1-.572,2.906,2.575,2.575,0,0,0,4.917,1.532,19.057,19.057,0,0,0,.785-3.987l3.516-40.069A7.936,7.936,0,0,0,387.115,118.687ZM342.8,182.069h23.982l4.09,13.358H338.712Z" transform="translate(-213.415 -116.12)"/>
    <path id="Path_989" data-name="Path 989" d="M51.431,160.309H29.449a4.9,4.9,0,0,1-4.91-4.5L22,126.876a11.722,11.722,0,0,0-11.741-10.755H7.912a7.912,7.912,0,0,0-7.881,8.6l3.516,40.069a18.939,18.939,0,0,0,13.695,16.561L8.826,208.838a2.575,2.575,0,1,0,4.924,1.508l2.991-9.768H52.058l2.991,9.768a2.575,2.575,0,0,0,4.924-1.508l-3.546-11.582-.01-.034-4.64-15.152h4.711a7.725,7.725,0,0,0,7.717-7.717v-1.269A12.788,12.788,0,0,0,51.431,160.309ZM18.318,195.428l4.09-13.359H46.39l4.09,13.359Zm40.737-21.076a2.57,2.57,0,0,1-2.567,2.567H22.406a14.117,14.117,0,0,1-1.626-.1h0a13.694,13.694,0,0,1-12.1-12.48L5.161,124.273a2.762,2.762,0,0,1,2.751-3h2.347a6.6,6.6,0,0,1,6.611,6.056l2.539,28.934h0a10.024,10.024,0,0,0,10.041,9.2H51.43a7.633,7.633,0,0,1,7.624,7.624v1.27Z" transform="translate(-0.001 -116.121)"/>
    <path id="Path_990" data-name="Path 990" d="M186.138,236.531a9.273,9.273,0,0,0-8.972-6.937h-1.594V182.719h31.707a6.052,6.052,0,0,0,5.928-7.271,11.679,11.679,0,0,0-11.4-9.293H148.276a2.575,2.575,0,0,0,0,5.15h53.533a6.51,6.51,0,0,1,6.353,5.18.9.9,0,0,1-.883,1.084H125.894a.9.9,0,0,1-.883-1.084,6.51,6.51,0,0,1,6.353-5.18H136.2a2.575,2.575,0,0,0,0-5.15h-4.835a11.679,11.679,0,0,0-11.4,9.293,6.052,6.052,0,0,0,5.928,7.27H157.6v46.875h-1.594a9.273,9.273,0,0,0-8.972,6.937l-.6,2.323a4.929,4.929,0,0,0,4.77,6.17h30.772a4.929,4.929,0,0,0,4.77-6.17Zm-23.387-53.812h7.672v46.875h-7.672Zm-11.265,57.155.533-2.047a4.121,4.121,0,0,1,3.988-3.083h21.158a4.121,4.121,0,0,1,3.988,3.083l.533,2.047Z" transform="translate(-78.698 -148.978)" fill="#ffcc2a"/>
  </g>
</svg>
