<svg xmlns="http://www.w3.org/2000/svg" width="17.937" height="26.833" viewBox="0 0 17.937 26.833">
  <path id="Path_989" data-name="Path 989" d="M14.369,128.466H8.228a1.37,1.37,0,0,1-1.372-1.257l-.709-8.084a3.275,3.275,0,0,0-3.28-3H2.211a2.21,2.21,0,0,0-2.2,2.4l.982,11.194a5.291,5.291,0,0,0,3.826,4.627l-2.351,7.678a.719.719,0,1,0,1.376.421l.836-2.729h9.867l.836,2.729a.719.719,0,1,0,1.376-.421l-.991-3.236,0-.01-1.3-4.233h1.316a2.158,2.158,0,0,0,2.156-2.156v-.355A3.573,3.573,0,0,0,14.369,128.466Zm-9.251,9.811,1.143-3.732h6.7l1.143,3.732ZM16.5,132.39a.718.718,0,0,1-.717.717H6.26a3.941,3.941,0,0,1-.454-.027h0a3.826,3.826,0,0,1-3.381-3.487L1.442,118.4a.772.772,0,0,1,.768-.839h.656a1.844,1.844,0,0,1,1.847,1.692l.709,8.084h0a2.8,2.8,0,0,0,2.805,2.57h6.141a2.132,2.132,0,0,1,2.13,2.13v.355Z" transform="translate(-0.001 -116.121)" fill="#3f3d56"/>
</svg>
