<svg id="watch" xmlns="http://www.w3.org/2000/svg" width="21.253" height="21.253" viewBox="0 0 21.253 21.253">
  <g id="Group_1388" data-name="Group 1388">
    <g id="Group_1387" data-name="Group 1387">
      <path id="Path_1001" data-name="Path 1001" d="M10.627,0A10.627,10.627,0,1,0,21.253,10.627,10.639,10.639,0,0,0,10.627,0Zm0,19.457a8.831,8.831,0,1,1,8.831-8.831A8.841,8.841,0,0,1,10.627,19.457Z" fill="#3f3d56"/>
    </g>
  </g>
  <g id="Group_1390" data-name="Group 1390" transform="translate(9.459 3.136)">
    <g id="Group_1389" data-name="Group 1389">
      <path id="Path_1002" data-name="Path 1002" d="M233.863,82.7h-4.191V76.44a.9.9,0,1,0-1.8,0V83.6a.9.9,0,0,0,.9.9h5.089a.9.9,0,1,0,0-1.8Z" transform="translate(-227.876 -75.542)" fill="#3f3d56"/>
    </g>
  </g>
</svg>
