<svg id="Component_66_1" data-name="Component 66 – 1" xmlns="http://www.w3.org/2000/svg" width="32" height="32" viewBox="0 0 32 32">
  <circle id="Ellipse_139" data-name="Ellipse 139" cx="16" cy="16" r="16" fill="#3f3d56"/>
  <g id="edit" transform="translate(7 7)">
    <path id="Path_1016" data-name="Path 1016" d="M16.851,48.8a.455.455,0,0,0-.455.455v4.037a1.365,1.365,0,0,1-1.364,1.364H2.273A1.365,1.365,0,0,1,.909,53.295V41.446a1.366,1.366,0,0,1,1.364-1.364H6.311a.455.455,0,0,0,0-.909H2.273A2.276,2.276,0,0,0,0,41.446V53.295a2.276,2.276,0,0,0,2.273,2.273H15.032a2.276,2.276,0,0,0,2.273-2.273V49.257a.455.455,0,0,0-.455-.455Zm0,0" transform="translate(0 -37.403)" fill="#fff"/>
    <path id="Path_1017" data-name="Path 1017" d="M120.4.86a2.046,2.046,0,0,0-2.894,0L109.39,8.972a.455.455,0,0,0-.117.2l-1.067,3.851a.455.455,0,0,0,.559.56l3.851-1.067a.455.455,0,0,0,.2-.117l8.112-8.112a2.048,2.048,0,0,0,0-2.894ZM110.381,9.268l6.639-6.639,2.141,2.141-6.639,6.639Zm-.428.858,1.711,1.711-2.366.656Zm10.333-6.482-.482.482-2.141-2.141.482-.482a1.137,1.137,0,0,1,1.607,0l.534.534A1.138,1.138,0,0,1,120.287,3.644Zm0,0" transform="translate(-103.271 -0.261)" fill="#fff"/>
  </g>
</svg>
