<svg id="Group_1385" data-name="Group 1385" xmlns="http://www.w3.org/2000/svg" width="23" height="23" viewBox="0 0 23 23">
  <path id="Path_1000" data-name="Path 1000" d="M11.087,0A11.087,11.087,0,1,0,22.175,11.087,11.1,11.1,0,0,0,11.087,0Zm0,20.789a9.7,9.7,0,1,1,9.7-9.7A9.712,9.712,0,0,1,11.087,20.789Z" transform="translate(0 0)" fill="#3f3d56"/>
  <g id="Group_1384" data-name="Group 1384" transform="translate(8.219 3.645)">
    <path id="Path_998" data-name="Path 998" d="M148.651,152.373h-.93V144.93a.931.931,0,0,0-.93-.93h-1.4a.93.93,0,1,0,0,1.861h.465v6.512h-.93a.93.93,0,0,0,0,1.861h3.721a.93.93,0,0,0,0-1.861Zm0,0" transform="translate(-144 -139.349)" fill="#3f3d56"/>
    <path id="Path_999" data-name="Path 999" d="M169.4,66.791a1.4,1.4,0,1,0-1.4-1.4A1.4,1.4,0,0,0,169.4,66.791Zm0,0" transform="translate(-166.605 -64)" fill="#3f3d56"/>
  </g>
</svg>
