<svg xmlns="http://www.w3.org/2000/svg" width="151" height="141.797" viewBox="0 0 151 141.797">
  <g id="Group_1377" data-name="Group 1377" transform="translate(2671 -956)" fill="#484848">
    <g id="Group_1376" data-name="Group 1376" transform="translate(164)">
      <path id="Path_980" data-name="Path 980" d="M70.269,235.036a2.214,2.214,0,0,0,3.091,3.171c4.425-4.313,2.613-7.863,1.412-10.213-1.127-2.2-1.593-3.117.782-5.352a2.214,2.214,0,0,0-3.035-3.224c-4.8,4.514-2.927,8.171-1.69,10.591,1.081,2.116,1.529,2.991-.56,5.026Zm0,0" transform="translate(-2884.075 801.29)" />
      <path id="Path_981" data-name="Path 981" d="M112.09,194.516a2.214,2.214,0,0,0,3.091,3.171c4.428-4.316,2.61-7.866,1.408-10.214-1.128-2.2-1.6-3.117.778-5.351a2.214,2.214,0,1,0-3.035-3.224c-4.8,4.515-2.924,8.172-1.685,10.593C113.73,191.606,114.178,192.482,112.09,194.516Zm0,0" transform="translate(-2913.64 829.939)"/>
      <path id="Intersection_1" data-name="Intersection 1" d="M65.387,70.763a2.214,2.214,0,0,1,0-4.428h23.06a2.119,2.119,0,0,0,2.115-2.119V59.7a1.908,1.908,0,0,0-.012-.216c-.014-.072-.026-.144-.033-.217a2.118,2.118,0,0,0-2.07-1.685H42.335A2.118,2.118,0,0,0,40.221,59.7v4.522a2.118,2.118,0,0,0,2.114,2.119H55.3a2.214,2.214,0,0,1,0,4.428H42.335a6.551,6.551,0,0,1-6.541-6.547V59.7a6.551,6.551,0,0,1,6.541-6.546h2.153A31.672,31.672,0,0,1,34.477,40.316H28.724A7.493,7.493,0,0,1,28,25.367h72.469a7.439,7.439,0,0,1,3.749,1.007,7.545,7.545,0,0,1,3.094,3.538h.035a7.516,7.516,0,0,1,.446,4.426h-.044a7.5,7.5,0,0,1-7.34,5.977H94.631a32.765,32.765,0,0,1-10,12.835h3.82a6.55,6.55,0,0,1,5.871,3.662l.089-.048a5.977,5.977,0,0,1,.592,2.6V61.24H94.99v2.977a6.552,6.552,0,0,1-6.543,6.547ZM36.955,29.95c-.321.4-.5,1.606-.122,3.3a27.55,27.55,0,0,0,16.544,19.9h22.6A28.261,28.261,0,0,0,92.3,33.25c.374-1.7.2-2.9-.12-3.3-.046-.058-.155-.192-.642-.192H37.594C37.11,29.759,37,29.893,36.955,29.95Zm59.667,4.256c-.126.566-.268,1.126-.422,1.681h4.207a3.065,3.065,0,0,0,0-6.13H96.778A10.947,10.947,0,0,1,96.622,34.206ZM25.668,32.827a3.061,3.061,0,0,0,3.056,3.06h4.206c-.151-.554-.294-1.111-.42-1.678v0a10.928,10.928,0,0,1-.154-4.449H28.724A3.066,3.066,0,0,0,25.668,32.827Z" transform="translate(-2856.24 1027.034)"/>
    </g>
    <path id="Path_984" data-name="Path 984" d="M264.543,62.92a2.214,2.214,0,0,0,2.213-2.214V50.537a2.214,2.214,0,0,0-4.428,0V60.706A2.214,2.214,0,0,0,264.543,62.92Zm0,0" transform="translate(-2855.474 921.834)"/>
    <path id="Path_985" data-name="Path 985" d="M213.233,64.012a2.214,2.214,0,0,0-2.213,2.214v10.16a2.214,2.214,0,0,0,4.428,0V66.226A2.214,2.214,0,0,0,213.233,64.012Zm0,0" transform="translate(-2819.197 910.742)"/>
    <path id="Path_986" data-name="Path 986" d="M315.851,78.6a2.214,2.214,0,0,0,2.213-2.214V66.225a2.214,2.214,0,0,0-4.428,0v10.16A2.214,2.214,0,0,0,315.851,78.6Zm0,0" transform="translate(-2891.751 910.742)"/>
    <path id="Subtraction_1" data-name="Subtraction 1" d="M159.95,139.351H155.9a7.432,7.432,0,0,1-7.408-7.078H98.52v-2.835a6.014,6.014,0,0,0-.214-1.593H137.7L134.2,107.627c-.038-.231-.415-2.256-1.9-2.256H111.781a9.322,9.322,0,0,0-.243-4.426h8.453V89.426a23.688,23.688,0,0,1-8.346,3.771,37.629,37.629,0,0,1-9.16,1.114c-.468,0-.95-.009-1.433-.028-6.255-.24-11.984-1.94-15.718-4.665V94.4H80.908V86.553a14.032,14.032,0,0,1-1.827.185c-1.309.062-2.6.171-3.847.323V94.4H70.807V87.865C65.865,89.1,62.341,91.235,60.035,94.4H54.86a18.749,18.749,0,0,1,6.722-7.418,29.5,29.5,0,0,1,10.984-4l.01,0,.014,0a51.537,51.537,0,0,1,6.3-.668h.032a7.589,7.589,0,0,0,3.144-.706l.005,0a7.306,7.306,0,0,0,2.84-2.651c-1.03-.8-2-1.629-2.888-2.469C78.2,72.871,73.656,67,73.656,59.533V28.952A12.2,12.2,0,0,1,69.4,23.63a9.933,9.933,0,0,1-.252-6.366c1.571-5.495,7.178-9.332,13.637-9.332h5.965A17.3,17.3,0,0,1,103.348,0c.552,0,1.11.027,1.659.079,5.372.514,9.566,3.376,11.507,7.853h6.245c6.365,0,11.892,3.781,13.441,9.2a10.013,10.013,0,0,1-.262,6.439,12.387,12.387,0,0,1-4.325,5.388V43.486a2.152,2.152,0,0,1,0,.644V58.385c0,7.126-3.525,14.06-9.924,19.523-.406.347-.848.7-1.391,1.12a7.32,7.32,0,0,0,2.768,2.562l.062.03.041.02a7.623,7.623,0,0,0,3.066.671.171.171,0,0,1,.031,0c14.591.691,23.233,6.318,25.689,16.724l2.112,8.95a7.409,7.409,0,0,1,1.837-.23h1.833v-31h-2.486a8.6,8.6,0,0,1-8.59-8.6V48.876a8.6,8.6,0,0,1,8.59-8.595h9.4a8.6,8.6,0,0,1,8.59,8.595V68.155a8.6,8.6,0,0,1-8.59,8.6h-2.487v31.222a11.492,11.492,0,0,1,9.251,11.255v8.648A11.482,11.482,0,0,1,159.95,139.351ZM155.9,112.184a2.986,2.986,0,0,0-1.871.664l-.059.049a2.992,2.992,0,0,0-1.058,2.282v16.74a3,3,0,0,0,2.99,3h4.047a7.049,7.049,0,0,0,7.036-7.045v-8.648a7.049,7.049,0,0,0-7.036-7.045ZM134.52,87.91v13.46a6.988,6.988,0,0,1,4.05,5.515l3.62,20.96h6.3V115.179a7.342,7.342,0,0,1,1.632-4.639l-2.474-10.486c-1.483-6.291-5.776-10.263-13.124-12.145Zm-10.1-1.327v14.362h5.674V87.084c-1.287-.165-2.641-.282-4.021-.348a13.767,13.767,0,0,1-1.652-.153ZM88.554,81.47h0a12.693,12.693,0,0,1-2.488,2.776c2.552,3.2,8.359,5.352,15.156,5.612.43.016.869.025,1.3.025,5.665,0,12.994-1.478,16.575-5.626a12.611,12.611,0,0,1-2.471-2.741,31.64,31.64,0,0,1-13.96,4.565c-.215.012-.433.018-.645.018-3.769,0-8.68-1.687-13.471-4.63Zm9.312-42.933a2.214,2.214,0,0,1,.1,4.426c-3.274.134-6.63.425-9.973.865a12.318,12.318,0,0,1-4.907,9.792,16.861,16.861,0,0,1-5,2.594v3.32c0,5.892,3.8,10.72,6.98,13.733a34.635,34.635,0,0,0,3.9,3.182,2.39,2.39,0,0,1,.227.157c4.451,3.077,9.487,5.066,12.831,5.068.129,0,.26,0,.4-.012,5.31-.3,11.59-3.024,16.388-7.12,5.4-4.609,8.371-10.346,8.371-16.156V56.246a17.015,17.015,0,0,1-4.72-2.336,12.314,12.314,0,0,1-5.278-10.076c-3.037-.4-6.042-.674-8.932-.823a2.214,2.214,0,0,1,.111-4.426q.058,0,.117,0c3.649.189,7.4.563,11.158,1.112l.038,0,.051,0a2.22,2.22,0,0,1,.282.051c2.435.364,4.848.8,7.172,1.285V27.779a2.2,2.2,0,0,1,1.044-1.879c3.167-1.973,4.52-4.726,3.712-7.554-.825-2.883-4.05-5.987-9.183-5.987h-7.8a2.225,2.225,0,0,1-2.127-1.6c-1.028-3.534-4.112-5.881-8.25-6.277-.384-.037-.78-.055-1.177-.055A12.7,12.7,0,0,0,92,11.156a2.2,2.2,0,0,1-1.971,1.2h-7.25c-5.01,0-8.51,3.079-9.379,6.12-.808,2.822.483,5.457,3.635,7.421a2.2,2.2,0,0,1,1.043,1.879V41.043c2.362-.5,4.762-.939,7.133-1.3.078-.017.154-.029.232-.038a.357.357,0,0,1,.041,0H85.5a116.138,116.138,0,0,1,12.28-1.166Zm57.385,6.172a4.17,4.17,0,0,0-4.162,4.168V68.155a4.17,4.17,0,0,0,4.162,4.169h9.4a4.17,4.17,0,0,0,4.162-4.169V48.876a4.169,4.169,0,0,0-4.162-4.168Zm-33.578-.2h0a8.541,8.541,0,0,0,5.512,7.039V45.58c-1.835-.4-3.69-.763-5.512-1.072Zm-38.172,0c-1.818.313-3.641.672-5.417,1.066v5.918A8.551,8.551,0,0,0,83.5,44.51Z" transform="translate(-2693.24 956)"/>
  </g>
</svg>
