<svg id="Component_129_1" data-name="Component 129 – 1" xmlns="http://www.w3.org/2000/svg" width="27.305" height="27.305" viewBox="0 0 27.305 27.305">
  <rect id="Rectangle_1979" data-name="Rectangle 1979" width="18" height="16" transform="translate(5 5.794)" fill="#fff"/>
  <path id="more" d="M13.653,0A13.653,13.653,0,1,0,27.305,13.653,13.668,13.668,0,0,0,13.653,0Zm5.973,14.79H14.79v4.835a1.138,1.138,0,1,1-2.275,0V14.79H7.68a1.138,1.138,0,1,1,0-2.275h4.835V7.68a1.138,1.138,0,1,1,2.275,0v4.835h4.835a1.138,1.138,0,1,1,0,2.275Zm0,0" fill="#ffcc2a"/>
</svg>
