<svg id="Group_1386" data-name="Group 1386" xmlns="http://www.w3.org/2000/svg" width="22.175" height="22.175" viewBox="0 0 22.175 22.175">
  <path id="Path_995" data-name="Path 995" d="M11.087,0A11.087,11.087,0,1,0,22.175,11.087,11.1,11.1,0,0,0,11.087,0Zm0,20.789a9.7,9.7,0,1,1,9.7-9.7A9.712,9.712,0,0,1,11.087,20.789Z" transform="translate(0 0)" fill="#fff"/>
  <path id="Path_996" data-name="Path 996" d="M153.38,89.117a3.469,3.469,0,0,0-3.465,3.465v3.464h-1.386v1.386h1.3a7.537,7.537,0,0,1-1.188,3.08.693.693,0,0,0,.577,1.077h7.623V100.2h-6.43a8.887,8.887,0,0,0,.812-2.77h2.846V96.047H151.3V92.582a2.08,2.08,0,1,1,4.159,0v.687l1.386,0v-.687a3.465,3.465,0,0,0-3.465-3.472Z" transform="translate(-141.599 -84.959)" fill="#fff"/>
</svg>
