<svg id="chef" xmlns="http://www.w3.org/2000/svg" width="23.481" height="23.481" viewBox="0 0 23.481 23.481">
  <g id="Group_1427" data-name="Group 1427">
    <g id="Group_1426" data-name="Group 1426">
      <path id="Path_1010" data-name="Path 1010" d="M107.733,213.867a.534.534,0,1,0-1.067,0c0,1.4,1.546,3.325,1.722,3.541a.534.534,0,1,0,.825-.677A6.469,6.469,0,0,1,107.733,213.867Z" transform="translate(-101.329 -202.66)" />
      <path id="Path_1011" data-name="Path 1011" d="M311.471,213.333a.533.533,0,0,0-.534.534,6.492,6.492,0,0,1-1.48,2.864.534.534,0,0,0,.825.677c.176-.215,1.722-2.139,1.722-3.541A.533.533,0,0,0,311.471,213.333Z" transform="translate(-293.861 -202.66)" />
      <path id="Path_1012" data-name="Path 1012" d="M224.534,213.333a.533.533,0,0,0-.534.534v3.2a.534.534,0,0,0,1.067,0v-3.2A.533.533,0,0,0,224.534,213.333Z" transform="translate(-212.793 -202.66)" />
      <path id="Path_1013" data-name="Path 1013" d="M17.611,2.135a5.589,5.589,0,0,0-1.012.108,6.383,6.383,0,0,0-9.716,0A5.6,5.6,0,0,0,5.87,2.135a5.868,5.868,0,0,0-2.656,11.1L3.2,21.3a2.178,2.178,0,0,0,2.177,2.18H18.1A2.18,2.18,0,0,0,20.279,21.3V13.228A5.867,5.867,0,0,0,17.611,2.135Zm1.6,19.169a1.112,1.112,0,0,1-1.11,1.11H5.381A1.11,1.11,0,0,1,4.271,21.3l0-2.09H19.212Zm.33-8.906a.479.479,0,0,0-.08.041.534.534,0,0,0-.245.375.516.516,0,0,0-.006.09v5.241H4.275l.007-5.234a.549.549,0,0,0-.005-.088.535.535,0,0,0-.084-.221.529.529,0,0,0-.158-.155A.559.559,0,0,0,3.95,12.4,4.8,4.8,0,0,1,5.87,3.2c.1,0,.213.013.32.021A6.357,6.357,0,0,0,5.336,6.4.534.534,0,0,0,6.4,6.4a5.337,5.337,0,1,1,10.673,0,.534.534,0,1,0,1.067,0,6.358,6.358,0,0,0-.854-3.181c.107-.008.216-.021.32-.021a4.8,4.8,0,0,1,1.931,9.2Z" />
    </g>
  </g>
</svg>
