<svg id="page" xmlns="http://www.w3.org/2000/svg" width="23" height="23" viewBox="0 0 23 23">
  <path id="page-2" data-name="page" d="M17.609,23H5.391A5.4,5.4,0,0,1,0,17.609V5.391A5.4,5.4,0,0,1,5.391,0H17.609A5.4,5.4,0,0,1,23,5.391V17.609A5.4,5.4,0,0,1,17.609,23ZM5.391,1.8A3.6,3.6,0,0,0,1.8,5.391V17.609A3.6,3.6,0,0,0,5.391,21.2H17.609A3.6,3.6,0,0,0,21.2,17.609V5.391A3.6,3.6,0,0,0,17.609,1.8Zm14.016,4a.9.9,0,0,0-.9-.9H4.492a.9.9,0,0,0,0,1.8H18.508A.9.9,0,0,0,19.406,5.795Zm.045,8.4a.9.9,0,0,0-.9-.9H13.3a.9.9,0,0,0,0,1.8h5.256A.9.9,0,0,0,19.451,14.2Zm0-3.594a.9.9,0,0,0-.9-.9H8.49a.9.9,0,0,0,0,1.8H18.553A.9.9,0,0,0,19.451,10.6Zm-8.8,3.594a.9.9,0,0,0-.9-.9H4.492a.9.9,0,0,0,0,1.8H9.748A.9.9,0,0,0,10.646,14.2Zm0,3.594a.9.9,0,0,0-.9-.9H4.492a.9.9,0,0,0,0,1.8H9.748A.9.9,0,0,0,10.646,17.789Zm6.963,0a.9.9,0,0,0-.9-.9H13.3a.9.9,0,0,0,0,1.8h3.414A.9.9,0,0,0,17.609,17.789ZM3.594,10.512A1.123,1.123,0,1,0,4.717,9.389,1.123,1.123,0,0,0,3.594,10.512Z"/>
</svg>
