<svg xmlns="http://www.w3.org/2000/svg" data-name="Component 66 – 1" width="18" height="18" style=""><rect id="backgroundrect" width="100%" height="100%" x="0" y="0" fill="none" stroke="none"/>
  
<g class="currentLayer" style=""><title>Layer 1</title><g id="edit" class="">
    <path id="Path_1016" data-name="Path 1016" d="M16.851,11.397518920898435 a0.455,0.455 0 0 0 -0.455,0.455 v4.037 a1.365,1.365 0 0 1 -1.364,1.364 H2.2729999999999997 A1.365,1.365 0 0 1 0.9089999999999998,15.89251892089844 V4.0435189208984355 a1.366,1.366 0 0 1 1.364,-1.364 H6.311 a0.455,0.455 0 0 0 0,-0.909 H2.2729999999999997 A2.276,2.276 0 0 0 0,4.0435189208984355 V15.89251892089844 a2.276,2.276 0 0 0 2.273,2.273 H15.032 a2.276,2.276 0 0 0 2.273,-2.273 V11.854518920898435 a0.455,0.455 0 0 0 -0.455,-0.455 zm0,0 "/>
    <path id="Path_1017" data-name="Path 1017" d="M17.128996276855474,0.5995187914371494 a2.046,2.046 0 0 0 -2.894,0 L6.118996276855469,8.711518791437149 a0.455,0.455 0 0 0 -0.11700000000000005,0.2 l-1.067,3.851 a0.455,0.455 0 0 0 0.559,0.56 l3.851,-1.067 a0.455,0.455 0 0 0 0.2,-0.11700000000000005 l8.112,-8.112 a2.048,2.048 0 0 0 0,-2.894 zM7.109996276855469,9.00751879143715 l6.639,-6.639 l2.141,2.141 l-6.639,6.639 zm-0.42800000000000016,0.8580000000000003 l1.711,1.711 l-2.366,0.6560000000000004 zm10.333,-6.482 l-0.48200000000000015,0.48200000000000015 l-2.141,-2.141 l0.48200000000000015,-0.48200000000000015 a1.137,1.137 0 0 1 1.6070000000000002,0 l0.534,0.534 A1.138,1.138 0 0 1 17.015996276855475,3.383518791437149 zm0,0 "/>
  </g></g></svg>