<svg xmlns="http://www.w3.org/2000/svg" data-name="Component 67 – 1" width="16" height="19"><rect id="backgroundrect" width="100%" height="100%" x="0" y="0" fill="none" stroke="none"/>
  
<g class="currentLayer" style=""><title>Layer 1</title><g id="bin" class="">
    <path id="Path_1018" data-name="Path 1018" d="M10.54240966033936,7.0130936622619515 a0.454,0.454 0 0 0 -0.454,0.454 v8.573 a0.454,0.454 0 0 0 0.907,0 v-8.573 A0.454,0.454 0 0 0 10.54240966033936,7.0130936622619515 zm0,0 "/>
    <path id="Path_1019" data-name="Path 1019" d="M5.190404655456547,7.0130936622619515 a0.454,0.454 0 0 0 -0.454,0.454 v8.573 a0.454,0.454 0 1 0 0.907,0 v-8.573 A0.454,0.454 0 0 0 5.190404655456547,7.0130936622619515 zm0,0 "/>
    <path id="Path_1020" data-name="Path 1020" d="M1.2884072189591826,5.765091220950708 V16.941091220950707 a2.5,2.5 0 0 0 0.6650000000000005,1.726 a2.234,2.234 0 0 0 1.621,0.7000000000000003 h8.582 a2.233,2.233 0 0 0 1.621,-0.7000000000000003 a2.5,2.5 0 0 0 0.6650000000000005,-1.726 V5.765091220950708 A1.733,1.733 0 0 0 14.003407218959183,2.357091220950707 H11.676407218959184 V1.7900912209507078 A1.782,1.782 0 0 0 9.87940721895918,0.00009122095070779324 H5.8514072189591815 a1.782,1.782 0 0 0 -1.8,1.792 v0.5670000000000003 H1.733407218959183 a1.733,1.733 0 0 0 -0.4450000000000002,3.408 zm10.869,12.7 H3.5744072189591822 a1.437,1.437 0 0 1 -1.379,-1.52 V5.8000912209507085 h11.34 V16.941091220950707 a1.437,1.437 0 0 1 -1.379,1.52 zM4.962407218959182,1.7900912209507078 A0.8740000000000003,0.8740000000000003 0 0 1 5.8514072189591815,0.9060912209507084 H9.87940721895918 a0.8740000000000003,0.8740000000000003 0 0 1 0.8890000000000003,0.8850000000000003 v0.5670000000000003 H4.962407218959182 zM1.733407218959183,3.2650912209507084 H14.003407218959183 A0.8160000000000003,0.8160000000000003 0 0 1 14.003407218959183,4.900091220950708 H1.733407218959183 a0.8160000000000003,0.8160000000000003 0 0 1 0,-1.633 zm0,0 "/>
    <path id="Path_1021" data-name="Path 1021" d="M7.866414787292484,7.0130936622619515 a0.454,0.454 0 0 0 -0.454,0.454 v8.573 a0.454,0.454 0 0 0 0.907,0 v-8.573 A0.454,0.454 0 0 0 7.866414787292484,7.0130936622619515 zm0,0 "/>
  </g></g></svg>