<svg xmlns="http://www.w3.org/2000/svg" width="26.119" height="22.034" viewBox="0 0 26.119 22.034">
  <path id="Path_990" data-name="Path 990" d="M138.363,185.817a2.591,2.591,0,0,0-2.507-1.938h-.445v-13.1h8.858a1.691,1.691,0,0,0,1.656-2.031,3.263,3.263,0,0,0-3.184-2.6H127.785a.719.719,0,0,0,0,1.439h14.956a1.819,1.819,0,0,1,1.775,1.447.252.252,0,0,1-.247.3H121.532a.252.252,0,0,1-.247-.3,1.819,1.819,0,0,1,1.775-1.447h1.351a.719.719,0,0,0,0-1.439h-1.351a3.263,3.263,0,0,0-3.184,2.6,1.691,1.691,0,0,0,1.656,2.031h8.858v13.1h-.445a2.591,2.591,0,0,0-2.507,1.938l-.169.649a1.377,1.377,0,0,0,1.333,1.724h8.6a1.377,1.377,0,0,0,1.333-1.724Zm-6.534-15.034h2.143v13.1h-2.143Zm-3.147,15.968.149-.572a1.151,1.151,0,0,1,1.114-.861h5.911a1.151,1.151,0,0,1,1.114.861l.149.572Z" transform="translate(-119.841 -166.156)"/>
</svg>
