<svg xmlns="http://www.w3.org/2000/svg" width="45.961" height="25.114" viewBox="0 0 45.961 25.114">
  <g id="chair" transform="translate(-0.001 -116.12)">
    <g id="Group_1375" data-name="Group 1375" transform="translate(0.001 116.12)">
      <g id="Group_1374" data-name="Group 1374">
        <path id="Path_988" data-name="Path 988" d="M341.233,116.791a2.073,2.073,0,0,0-1.525-.671h-.614a3.065,3.065,0,0,0-3.07,2.812l-.664,7.566a1.282,1.282,0,0,1-1.284,1.176h-5.747a3.344,3.344,0,0,0-3.34,3.34v.332a2.02,2.02,0,0,0,2.018,2.018h1.232l-1.213,3.962,0,.009-.927,3.028a.673.673,0,1,0,1.287.394l.782-2.554H337.4l.782,2.554a.673.673,0,1,0,1.287-.394l-2.2-7.187a4.935,4.935,0,0,0,1.11-.466.673.673,0,1,0-.67-1.168,3.6,3.6,0,0,1-1.79.475h-8.911a.672.672,0,0,1-.671-.671v-.332a2,2,0,0,1,1.994-1.993h5.747a2.621,2.621,0,0,0,2.625-2.4l.664-7.566a1.726,1.726,0,0,1,1.729-1.583h.614a.722.722,0,0,1,.719.785l-.919,10.477a3.623,3.623,0,0,1-.15.76.673.673,0,0,0,1.286.4,4.982,4.982,0,0,0,.205-1.043l.919-10.477A2.075,2.075,0,0,0,341.233,116.791Zm-11.587,16.573h6.271l1.07,3.493h-8.41Z" transform="translate(-295.815 -116.12)" />
        <path id="Path_989" data-name="Path 989" d="M13.448,127.675H7.7A1.282,1.282,0,0,1,6.417,126.5l-.664-7.566a3.065,3.065,0,0,0-3.07-2.812H2.069A2.069,2.069,0,0,0,.009,118.37l.919,10.477a4.952,4.952,0,0,0,3.581,4.33l-2.2,7.186a.673.673,0,1,0,1.287.394l.782-2.554h9.234l.782,2.554a.673.673,0,1,0,1.287-.394l-.927-3.028,0-.009-1.213-3.962h1.232a2.02,2.02,0,0,0,2.018-2.018v-.332A3.344,3.344,0,0,0,13.448,127.675ZM4.79,136.858l1.069-3.493H12.13l1.07,3.493Zm10.652-5.511a.672.672,0,0,1-.671.671H5.859a3.69,3.69,0,0,1-.425-.025h0a3.581,3.581,0,0,1-3.164-3.263L1.35,118.253a.722.722,0,0,1,.719-.785h.614a1.726,1.726,0,0,1,1.728,1.584l.664,7.566h0a2.621,2.621,0,0,0,2.625,2.4h5.747a2,2,0,0,1,1.993,1.993v.332Z" transform="translate(-0.001 -116.121)" />
        <path id="Path_990" data-name="Path 990" d="M137.176,184.557a2.425,2.425,0,0,0-2.346-1.814h-.417V170.487h8.29a1.582,1.582,0,0,0,1.55-1.9,3.054,3.054,0,0,0-2.98-2.43h-14a.673.673,0,0,0,0,1.347h14a1.7,1.7,0,0,1,1.661,1.354.236.236,0,0,1-.231.283h-21.28a.236.236,0,0,1-.231-.283,1.7,1.7,0,0,1,1.661-1.355h1.264a.673.673,0,0,0,0-1.347h-1.264a3.054,3.054,0,0,0-2.98,2.43,1.582,1.582,0,0,0,1.55,1.9h8.291v12.257H129.3a2.425,2.425,0,0,0-2.346,1.814l-.158.607a1.289,1.289,0,0,0,1.247,1.613h8.046a1.289,1.289,0,0,0,1.247-1.613Zm-6.115-14.07h2.006v12.257h-2.006Zm-2.945,14.944.139-.535a1.078,1.078,0,0,1,1.043-.806h5.532a1.078,1.078,0,0,1,1.043.806l.139.535Z" transform="translate(-109.083 -161.664)" />
      </g>
    </g>
  </g>
</svg>
