<svg xmlns="http://www.w3.org/2000/svg" width="22" height="22" viewBox="0 0 22 22">
  <g id="dashboard" transform="translate(0 0)">
    <path id="Path_991" data-name="Path 991" d="M8.207,7.1H1.553A1.554,1.554,0,0,1,0,5.545V1.553A1.554,1.554,0,0,1,1.553,0H8.207A1.554,1.554,0,0,1,9.759,1.553V5.545A1.554,1.554,0,0,1,8.207,7.1ZM1.553,1.331a.222.222,0,0,0-.222.222V5.545a.222.222,0,0,0,.222.222H8.207a.222.222,0,0,0,.222-.222V1.553a.222.222,0,0,0-.222-.222Zm0,0" />
    <path id="Path_992" data-name="Path 992" d="M8.207,225.753H1.553A1.554,1.554,0,0,1,0,224.2v-9.316a1.554,1.554,0,0,1,1.553-1.553H8.207a1.554,1.554,0,0,1,1.553,1.553V224.2A1.554,1.554,0,0,1,8.207,225.753Zm-6.654-11.09a.222.222,0,0,0-.222.222V224.2a.222.222,0,0,0,.222.222H8.207a.222.222,0,0,0,.222-.222v-9.316a.222.222,0,0,0-.222-.222Zm0,0" transform="translate(0 -204.46)" />
    <path id="Path_993" data-name="Path 993" d="M285.539,348.43h-6.654a1.554,1.554,0,0,1-1.553-1.553v-3.992a1.554,1.554,0,0,1,1.553-1.553h6.654a1.554,1.554,0,0,1,1.553,1.553v3.992A1.554,1.554,0,0,1,285.539,348.43Zm-6.654-5.767a.222.222,0,0,0-.222.222v3.992a.222.222,0,0,0,.222.222h6.654a.222.222,0,0,0,.222-.222v-3.992a.222.222,0,0,0-.222-.222Zm0,0" transform="translate(-265.798 -327.137)" />
    <path id="Path_994" data-name="Path 994" d="M285.539,12.421h-6.654a1.554,1.554,0,0,1-1.553-1.553V1.553A1.554,1.554,0,0,1,278.885,0h6.654a1.554,1.554,0,0,1,1.553,1.553v9.316A1.554,1.554,0,0,1,285.539,12.421Zm-6.654-11.09a.222.222,0,0,0-.222.222v9.316a.222.222,0,0,0,.222.222h6.654a.222.222,0,0,0,.222-.222V1.553a.222.222,0,0,0-.222-.222Zm0,0" transform="translate(-265.798)" />
  </g>
</svg>
